<svg width="427" height="427" viewBox="0 0 427 427" fill="none" xmlns="http://www.w3.org/2000/svg">
<rect width="427" height="427" fill="#0D0F35"/>
<path opacity="0.1" fill-rule="evenodd" clip-rule="evenodd" d="M167.083 183.065L209.278 159.684V115.725C204.375 114.86 199.935 112.311 196.737 108.524L129.138 147.333C129.942 149.566 130.378 151.959 130.378 154.466C130.378 156.562 130.08 158.567 129.506 160.482L167.083 183.065ZM193.154 102.44C192.257 100.072 191.798 97.5631 191.798 95.0336C191.798 89.2226 194.164 83.9585 198 80.1528C201.836 76.3472 207.142 74 212.999 74C218.856 74 224.162 76.3472 227.998 80.1528C229.969 82.1057 231.531 84.4256 232.595 86.9793C233.66 89.533 234.205 92.2702 234.2 95.0336C234.2 97.5859 233.74 100.024 232.913 102.28L300.834 141.248C301.316 140.679 301.798 140.109 302.327 139.585C304.295 137.63 306.633 136.079 309.207 135.024C311.781 133.968 314.54 133.427 317.326 133.432C323.183 133.432 328.489 135.779 332.325 139.585C334.295 141.538 335.858 143.858 336.922 146.411C337.986 148.965 338.531 151.702 338.526 154.466C338.526 160.277 336.16 165.518 332.325 169.324C329.028 172.598 324.731 174.698 320.105 175.294V252.569C324.86 253.184 329.109 255.349 332.325 258.54C336.16 262.345 338.526 267.609 338.526 273.398C338.529 276.161 337.982 278.897 336.917 281.45C335.853 284.003 334.291 286.322 332.322 288.276C330.353 290.23 328.015 291.779 325.442 292.835C322.868 293.891 320.11 294.434 317.326 294.431C314.181 294.436 311.076 293.745 308.235 292.409C305.394 291.072 302.889 289.124 300.903 286.706L232.89 325.72C233.717 327.976 234.177 330.414 234.177 332.966C234.177 338.777 231.811 344.041 227.975 347.847C226.007 349.802 223.668 351.352 221.094 352.408C218.52 353.464 215.761 354.005 212.976 354C207.119 354 201.813 351.653 197.977 347.847C194.141 344.041 191.775 338.777 191.775 332.966C191.775 330.368 192.258 327.862 193.131 325.56L125.555 286.797C123.567 289.197 121.066 291.129 118.234 292.453C115.402 293.777 112.309 294.46 109.178 294.454C103.321 294.454 98.0147 292.107 94.1788 288.301C90.3659 284.496 88.0001 279.232 88.0001 273.421C88.0001 267.609 90.3659 262.368 94.2018 258.563C97.461 255.326 101.694 253.23 106.261 252.592V175.271C101.691 174.643 97.4549 172.546 94.2018 169.301C92.2296 167.354 90.6661 165.038 89.6016 162.488C88.5371 159.937 87.9927 157.203 88.0001 154.443C88.0001 148.632 90.3659 143.368 94.2018 139.562C96.1701 137.607 98.5085 136.057 101.082 135.001C103.656 133.945 106.415 133.404 109.201 133.409C112.351 133.404 115.462 134.096 118.307 135.437C121.153 136.777 123.66 138.732 125.647 141.157L193.154 102.44ZM229.353 108.388C226.134 112.282 221.608 114.895 216.605 115.748V159.684L258.708 183.885L297.411 161.689C296.561 159.433 296.125 156.972 296.125 154.443C296.125 151.982 296.561 149.589 297.342 147.401L229.353 108.388ZM313.628 175.157C309.343 174.418 305.395 172.38 302.327 169.324C301.89 168.891 301.477 168.458 301.086 167.979L262.452 190.129V237.483L301.247 259.702C301.592 259.315 301.936 258.927 302.304 258.563C305.376 255.51 309.322 253.473 313.605 252.729V175.157H313.628ZM297.388 280.599C296.561 278.366 296.125 275.95 296.125 273.443C296.125 270.8 296.607 268.27 297.526 265.923L259.994 244.434L216.605 269.455V312.275C221.608 313.128 226.134 315.741 229.353 319.635L297.388 280.599ZM196.737 319.476C199.935 315.689 204.375 313.14 209.278 312.275V269.25L165.728 244.183L128.771 265.353C129.804 267.837 130.401 270.572 130.401 273.443C130.401 275.996 129.942 278.434 129.115 280.69L196.737 319.476ZM112.715 252.683C117.148 253.412 121.122 255.532 124.177 258.563C124.406 258.79 124.613 259.018 124.82 259.246L162.467 237.688V188.762L126.221 166.976C125.601 167.819 124.912 168.594 124.177 169.324C121.062 172.414 117.057 174.469 112.715 175.203V252.683ZM109.224 168.207C109.316 168.207 109.407 168.184 109.499 168.184H109.683C113.193 168.075 116.529 166.64 119.009 164.173C120.299 162.897 121.322 161.38 122.02 159.71C122.717 158.041 123.076 156.25 123.074 154.443C123.074 150.637 121.512 147.196 119.009 144.712C116.505 142.228 113.037 140.679 109.201 140.679C105.365 140.679 101.897 142.228 99.3928 144.712C98.1027 145.989 97.0794 147.505 96.3817 149.175C95.6841 150.845 95.3257 152.635 95.3273 154.443C95.3273 158.248 96.8892 161.689 99.3928 164.173C100.683 165.455 102.215 166.472 103.902 167.164C105.59 167.856 107.398 168.211 109.224 168.207ZM222.784 323.281C221.497 322.001 219.969 320.986 218.286 320.294C216.602 319.602 214.798 319.246 212.976 319.248C209.14 319.248 205.672 320.797 203.168 323.281C200.665 325.765 199.103 329.206 199.103 333.012C199.103 336.818 200.665 340.259 203.168 342.743C205.672 345.226 209.14 346.776 212.976 346.776C216.812 346.776 220.28 345.226 222.784 342.743C225.288 340.259 226.85 336.818 226.85 333.012C226.85 329.206 225.311 325.765 222.784 323.281ZM222.784 85.303C221.497 84.023 219.969 83.0078 218.286 82.3156C216.602 81.6234 214.798 81.2679 212.976 81.2695C209.14 81.2695 205.672 82.8191 203.168 85.303C200.665 87.7869 199.103 91.228 199.103 95.0336C199.103 98.8393 200.665 102.28 203.168 104.764C204.455 106.044 205.983 107.059 207.667 107.752C209.35 108.444 211.154 108.799 212.976 108.798C216.812 108.798 220.28 107.248 222.784 104.764C224.074 103.488 225.097 101.971 225.795 100.301C226.493 98.6314 226.851 96.8412 226.85 95.0336C226.85 91.228 225.311 87.7869 222.784 85.303ZM327.111 263.713C325.824 262.433 324.295 261.417 322.612 260.725C320.929 260.033 319.125 259.678 317.303 259.679C313.467 259.679 309.998 261.229 307.495 263.713C306.205 264.989 305.181 266.506 304.484 268.176C303.786 269.846 303.428 271.636 303.429 273.443C303.429 277.249 304.991 280.69 307.495 283.174C308.781 284.454 310.31 285.469 311.993 286.161C313.676 286.853 315.481 287.209 317.303 287.207C321.139 287.207 324.607 285.658 327.111 283.174C328.401 281.897 329.424 280.381 330.122 278.711C330.819 277.041 331.178 275.251 331.176 273.443C331.176 269.638 329.637 266.197 327.111 263.713ZM119.009 263.713C116.505 261.229 113.037 259.679 109.201 259.679C105.365 259.679 101.897 261.229 99.3928 263.713C98.1027 264.989 97.0794 266.506 96.3817 268.176C95.6841 269.846 95.3257 271.636 95.3273 273.443C95.3273 277.249 96.8892 280.69 99.3928 283.174C101.897 285.658 105.365 287.207 109.201 287.207C113.037 287.207 116.505 285.658 119.009 283.174C120.299 281.897 121.322 280.381 122.02 278.711C122.717 277.041 123.076 275.251 123.074 273.443C123.067 269.794 121.605 266.297 119.009 263.713ZM304.945 160.664C305.129 160.846 305.267 161.074 305.405 161.302C305.542 161.53 305.634 161.758 305.726 162.008C306.254 162.783 306.852 163.512 307.495 164.173C308.781 165.453 310.31 166.469 311.993 167.161C313.676 167.853 315.481 168.208 317.303 168.207C321.139 168.207 324.607 166.657 327.111 164.173C328.401 162.897 329.424 161.38 330.122 159.71C330.819 158.041 331.178 156.25 331.176 154.443C331.176 150.637 329.614 147.196 327.111 144.712C325.824 143.432 324.295 142.417 322.612 141.725C320.929 141.033 319.125 140.677 317.303 140.679C313.467 140.679 309.998 142.228 307.495 144.712C306.205 145.989 305.181 147.505 304.484 149.175C303.786 150.845 303.428 152.635 303.429 154.443C303.452 156.699 304.003 158.795 304.945 160.664ZM169.334 236.914C169.856 237.47 170.2 238.168 170.322 238.919L209.668 261.867V216.564L169.334 192.75V236.914ZM255.607 193.365L216.536 216.586V261.912L255.607 239.01V193.365ZM212.93 165.13L174.801 187.759L213.137 210.661L250.37 188.238L212.93 165.13Z" fill="white"/>
<path d="M120.557 341.759C123.247 341.759 125.217 342.328 126.466 343.466C127.739 344.604 128.376 346.178 128.376 348.187C128.376 348.865 128.268 349.519 128.052 350.149C127.859 350.754 127.571 351.311 127.187 351.819C126.826 352.328 126.382 352.776 125.854 353.163C125.349 353.526 124.797 353.793 124.196 353.962C124.845 354.059 125.493 354.253 126.142 354.543C126.79 354.834 127.367 355.245 127.871 355.778C128.376 356.287 128.784 356.928 129.096 357.703C129.409 358.478 129.565 359.41 129.565 360.5C129.565 361.832 129.313 362.97 128.808 363.914C128.328 364.858 127.679 365.633 126.863 366.238C126.046 366.819 125.109 367.243 124.052 367.51C123.019 367.776 121.95 367.909 120.845 367.909H114.108V341.759H120.557ZM117.17 355.161V365.548H120.773C121.494 365.548 122.178 365.464 122.827 365.294C123.5 365.125 124.1 364.846 124.629 364.459C125.157 364.047 125.577 363.526 125.89 362.897C126.202 362.243 126.358 361.444 126.358 360.5C126.358 358.756 125.878 357.437 124.917 356.541C123.956 355.621 122.527 355.161 120.629 355.161H117.17ZM117.17 343.902V352.945H120.485C122.142 352.945 123.355 352.534 124.124 351.71C124.917 350.887 125.313 349.749 125.313 348.296C125.313 346.747 124.869 345.633 123.98 344.955C123.115 344.253 121.95 343.902 120.485 343.902H117.17Z" fill="white"/>
<path d="M137.576 347.57V365.33H147.268V367.909H134.621V347.57H137.576Z" fill="white"/>
<path d="M149.981 357.739C149.981 355.851 150.233 354.229 150.738 352.873C151.242 351.517 151.915 350.403 152.755 349.531C153.596 348.659 154.557 348.03 155.638 347.643C156.743 347.231 157.872 347.025 159.025 347.025C160.178 347.025 161.295 347.231 162.376 347.643C163.48 348.03 164.453 348.659 165.294 349.531C166.135 350.403 166.807 351.517 167.312 352.873C167.816 354.229 168.068 355.851 168.068 357.739C168.068 359.628 167.816 361.25 167.312 362.606C166.807 363.962 166.123 365.076 165.258 365.948C164.417 366.819 163.456 367.461 162.376 367.873C161.295 368.26 160.178 368.454 159.025 368.454C157.872 368.454 156.755 368.26 155.674 367.873C154.593 367.461 153.62 366.819 152.755 365.948C151.915 365.076 151.242 363.962 150.738 362.606C150.233 361.25 149.981 359.628 149.981 357.739ZM153.007 357.739C153.007 360.5 153.536 362.582 154.593 363.986C155.674 365.367 157.151 366.057 159.025 366.057C160.898 366.057 162.364 365.367 163.42 363.986C164.501 362.582 165.042 360.5 165.042 357.739C165.042 354.979 164.501 352.897 163.42 351.492C162.364 350.088 160.898 349.386 159.025 349.386C157.151 349.386 155.674 350.088 154.593 351.492C153.536 352.873 153.007 354.955 153.007 357.739Z" fill="white"/>
<path d="M188.844 364.422C188.243 365.585 187.343 366.553 186.142 367.328C184.965 368.079 183.475 368.454 181.674 368.454C180.737 368.454 179.764 368.284 178.755 367.945C177.746 367.606 176.822 367.037 175.981 366.238C175.14 365.415 174.444 364.313 173.891 362.933C173.363 361.553 173.098 359.822 173.098 357.739C173.098 355.706 173.375 353.999 173.927 352.618C174.48 351.238 175.176 350.136 176.017 349.313C176.882 348.49 177.83 347.909 178.863 347.57C179.896 347.207 180.881 347.025 181.818 347.025C183.499 347.025 184.881 347.388 185.961 348.115C187.042 348.817 187.895 349.676 188.52 350.693L186.034 351.928C185.649 351.178 185.097 350.572 184.376 350.112C183.679 349.652 182.827 349.422 181.818 349.422C181.169 349.422 180.509 349.555 179.836 349.822C179.164 350.064 178.551 350.512 177.999 351.166C177.47 351.795 177.026 352.643 176.665 353.708C176.329 354.773 176.161 356.117 176.161 357.739C176.161 359.338 176.329 360.669 176.665 361.735C177.026 362.8 177.47 363.66 177.999 364.313C178.551 364.943 179.152 365.391 179.8 365.657C180.473 365.899 181.133 366.02 181.782 366.02C182.887 366.02 183.824 365.766 184.592 365.258C185.385 364.725 185.985 363.999 186.394 363.078L188.844 364.422Z" fill="white"/>
<path d="M205.363 367.909L197.04 358.575V367.909H194.122V347.57H197.04V356.359L204.499 347.57H208.03L199.67 357.267L209.11 367.909H205.363Z" fill="white"/>
<path d="M226.423 364.422C225.823 365.585 224.922 366.553 223.721 367.328C222.544 368.079 221.054 368.454 219.253 368.454C218.316 368.454 217.343 368.284 216.334 367.945C215.326 367.606 214.401 367.037 213.56 366.238C212.719 365.415 212.023 364.313 211.47 362.933C210.942 361.553 210.678 359.822 210.678 357.739C210.678 355.706 210.954 353.999 211.506 352.618C212.059 351.238 212.755 350.136 213.596 349.313C214.461 348.49 215.41 347.909 216.443 347.57C217.475 347.207 218.46 347.025 219.397 347.025C221.078 347.025 222.46 347.388 223.541 348.115C224.622 348.817 225.474 349.676 226.099 350.693L223.613 351.928C223.228 351.178 222.676 350.572 221.955 350.112C221.259 349.652 220.406 349.422 219.397 349.422C218.748 349.422 218.088 349.555 217.415 349.822C216.743 350.064 216.13 350.512 215.578 351.166C215.049 351.795 214.605 352.643 214.245 353.708C213.908 354.773 213.74 356.117 213.74 357.739C213.74 359.338 213.908 360.669 214.245 361.735C214.605 362.8 215.049 363.66 215.578 364.313C216.13 364.943 216.731 365.391 217.379 365.657C218.052 365.899 218.712 366.02 219.361 366.02C220.466 366.02 221.403 365.766 222.171 365.258C222.964 364.725 223.565 363.999 223.973 363.078L226.423 364.422Z" fill="white"/>
<path d="M247.086 347.57V367.909H244.095V358.793H234.655V367.909H231.701V347.57H234.655V356.359H244.095V347.57H247.086Z" fill="white"/>
<path d="M266.126 367.909L264.432 363.006H255.424L253.695 367.909H250.704L258.271 347.57H261.802L269.332 367.909H266.126ZM256.217 360.681H263.639L260 349.967L256.217 360.681Z" fill="white"/>
<path d="M275.894 347.57V367.909H272.939V347.57H275.894Z" fill="white"/>
<path d="M296.782 347.57V367.909H292.602L285.144 350.911V367.909H282.369V347.57H286.621L294.079 364.386V347.57H296.782Z" fill="white"/>
<path fill-rule="evenodd" clip-rule="evenodd" d="M57.7645 347.696L67.2427 342.402V332.448C66.1414 332.252 65.1441 331.675 64.4256 330.817L49.2409 339.605C49.4215 340.111 49.5195 340.652 49.5195 341.22C49.5195 341.695 49.4524 342.149 49.3234 342.582L57.7645 347.696ZM63.6207 329.44C63.4192 328.904 63.3161 328.335 63.3163 327.763C63.3163 326.447 63.8477 325.255 64.7094 324.393C65.571 323.531 66.7629 323 68.0786 323C69.3943 323 70.5862 323.531 71.4478 324.393C71.8905 324.835 72.2415 325.361 72.4805 325.939C72.7196 326.517 72.8421 327.137 72.8409 327.763C72.8409 328.341 72.7377 328.893 72.552 329.404L87.8089 338.227C87.9173 338.098 88.0256 337.969 88.1443 337.851C88.5865 337.408 89.1117 337.057 89.6899 336.818C90.2681 336.579 90.8879 336.456 91.5135 336.457C92.8292 336.457 94.0211 336.989 94.8828 337.851C95.3254 338.293 95.6764 338.818 95.9155 339.396C96.1545 339.974 96.277 340.594 96.2759 341.22C96.2759 342.536 95.7444 343.723 94.8828 344.584C94.1422 345.326 93.177 345.801 92.1379 345.936V363.434C93.2059 363.573 94.1604 364.063 94.8828 364.786C95.7444 365.647 96.2759 366.839 96.2759 368.15C96.2764 368.776 96.1536 369.395 95.9145 369.973C95.6753 370.551 95.3245 371.077 94.8822 371.519C94.4399 371.961 93.9147 372.312 93.3366 372.551C92.7586 372.791 92.1391 372.913 91.5135 372.913C90.8073 372.914 90.1096 372.757 89.4714 372.455C88.8333 372.152 88.2706 371.711 87.8244 371.164L72.5468 379.997C72.7326 380.508 72.8358 381.06 72.8358 381.638C72.8358 382.954 72.3043 384.146 71.4427 385.008C71.0005 385.451 70.4753 385.802 69.8971 386.041C69.3189 386.28 68.6991 386.402 68.0734 386.401C66.7577 386.401 65.5659 385.87 64.7042 385.008C63.8426 384.146 63.3111 382.954 63.3111 381.638C63.3111 381.05 63.4195 380.483 63.6155 379.961L48.436 371.184C47.9894 371.728 47.4277 372.165 46.7915 372.465C46.1553 372.765 45.4605 372.919 44.7572 372.918C43.4415 372.918 42.2496 372.386 41.388 371.525C40.5315 370.663 40 369.471 40 368.155C40 366.839 40.5315 365.653 41.3931 364.791C42.1252 364.058 43.0761 363.583 44.1019 363.439V345.931C43.0754 345.789 42.1238 345.314 41.3931 344.579C40.9501 344.138 40.5989 343.614 40.3598 343.036C40.1206 342.459 39.9984 341.84 40 341.215C40 339.899 40.5315 338.707 41.3931 337.845C41.8353 337.403 42.3605 337.052 42.9387 336.813C43.5169 336.573 44.1367 336.451 44.7623 336.452C45.4699 336.451 46.1688 336.608 46.808 336.911C47.4471 337.215 48.0104 337.657 48.4566 338.207L63.6207 329.44ZM71.7522 330.786C71.0291 331.668 70.0125 332.26 68.8887 332.453V342.402L78.3462 347.882L87.0402 342.856C86.8493 342.345 86.7512 341.788 86.7512 341.215C86.7512 340.658 86.8493 340.116 87.0247 339.62L71.7522 330.786ZM90.6828 345.905C89.7205 345.738 88.8336 345.276 88.1443 344.584C88.0463 344.486 87.9534 344.388 87.8657 344.28L79.1872 349.295V360.018L87.9018 365.049C87.9792 364.961 88.0566 364.873 88.1392 364.791C88.8292 364.1 89.7157 363.638 90.6777 363.47V345.905H90.6828ZM87.035 369.781C86.8493 369.275 86.7512 368.728 86.7512 368.16C86.7512 367.562 86.8596 366.989 87.066 366.458L78.6352 361.592L68.8887 367.257V376.953C70.0125 377.146 71.0291 377.738 71.7522 378.62L87.035 369.781ZM64.4256 378.584C65.1441 377.726 66.1414 377.149 67.2427 376.953V367.211L57.4601 361.535L49.1583 366.329C49.3905 366.891 49.5247 367.51 49.5247 368.16C49.5247 368.738 49.4215 369.29 49.2357 369.801L64.4256 378.584ZM45.5518 363.46C46.5476 363.625 47.4402 364.105 48.1264 364.791C48.178 364.843 48.2244 364.894 48.2709 364.946L56.7275 360.064V348.986L48.5856 344.053C48.4463 344.244 48.2915 344.419 48.1264 344.584C47.4268 345.284 46.5272 345.749 45.5518 345.916V363.46ZM44.7675 344.331C44.7881 344.331 44.8088 344.326 44.8294 344.326H44.8707C45.6591 344.302 46.4084 343.977 46.9655 343.418C47.2553 343.129 47.4852 342.786 47.6419 342.408C47.7986 342.029 47.8791 341.624 47.8787 341.215C47.8787 340.353 47.5279 339.574 46.9655 339.012C46.4031 338.449 45.624 338.098 44.7623 338.098C43.9007 338.098 43.1216 338.449 42.5592 339.012C42.2694 339.301 42.0395 339.644 41.8828 340.022C41.7261 340.4 41.6456 340.806 41.6459 341.215C41.6459 342.077 41.9968 342.856 42.5592 343.418C42.8489 343.708 43.1932 343.939 43.5722 344.095C43.9511 344.252 44.3574 344.332 44.7675 344.331ZM70.2766 379.445C69.9876 379.156 69.6442 378.926 69.2661 378.769C68.888 378.612 68.4827 378.532 68.0734 378.532C67.2118 378.532 66.4327 378.883 65.8703 379.445C65.3079 380.008 64.957 380.787 64.957 381.649C64.957 382.51 65.3079 383.29 65.8703 383.852C66.4327 384.414 67.2118 384.765 68.0734 384.765C68.9351 384.765 69.7142 384.414 70.2766 383.852C70.839 383.29 71.1898 382.51 71.1898 381.649C71.1898 380.787 70.8441 380.008 70.2766 379.445ZM70.2766 325.559C69.9876 325.27 69.6442 325.04 69.2661 324.883C68.888 324.726 68.4827 324.646 68.0734 324.646C67.2118 324.646 66.4327 324.997 65.8703 325.559C65.3079 326.122 64.957 326.901 64.957 327.763C64.957 328.624 65.3079 329.404 65.8703 329.966C66.1593 330.256 66.5027 330.486 66.8808 330.642C67.2589 330.799 67.6642 330.88 68.0734 330.879C68.9351 330.879 69.7142 330.528 70.2766 329.966C70.5664 329.677 70.7963 329.334 70.953 328.955C71.1097 328.577 71.1902 328.172 71.1898 327.763C71.1898 326.901 70.8441 326.122 70.2766 325.559ZM93.7115 365.957C93.4225 365.667 93.0791 365.437 92.701 365.281C92.323 365.124 91.9177 365.043 91.5084 365.044C90.6467 365.044 89.8676 365.395 89.3052 365.957C89.0154 366.246 88.7856 366.59 88.6288 366.968C88.4721 367.346 88.3916 367.751 88.392 368.16C88.392 369.022 88.7428 369.801 89.3052 370.364C89.5942 370.654 89.9376 370.883 90.3157 371.04C90.6938 371.197 91.0991 371.277 91.5084 371.277C92.37 371.277 93.1491 370.926 93.7115 370.364C94.0013 370.075 94.2312 369.731 94.3879 369.353C94.5446 368.975 94.6251 368.57 94.6248 368.16C94.6248 367.299 94.2791 366.52 93.7115 365.957ZM46.9655 365.957C46.4031 365.395 45.624 365.044 44.7623 365.044C43.9007 365.044 43.1216 365.395 42.5592 365.957C42.2694 366.246 42.0395 366.59 41.8828 366.968C41.7261 367.346 41.6456 367.751 41.6459 368.16C41.6459 369.022 41.9968 369.801 42.5592 370.364C43.1216 370.926 43.9007 371.277 44.7623 371.277C45.624 371.277 46.4031 370.926 46.9655 370.364C47.2553 370.075 47.4852 369.731 47.6419 369.353C47.7986 368.975 47.8791 368.57 47.8787 368.16C47.8771 367.334 47.5488 366.542 46.9655 365.957ZM88.7325 342.624C88.7738 342.665 88.8047 342.716 88.8357 342.768C88.8667 342.82 88.8873 342.871 88.9079 342.928C89.0266 343.103 89.1608 343.269 89.3052 343.418C89.5942 343.708 89.9376 343.938 90.3157 344.095C90.6938 344.251 91.0991 344.332 91.5084 344.331C92.37 344.331 93.1491 343.981 93.7115 343.418C94.0013 343.129 94.2312 342.786 94.3879 342.408C94.5446 342.029 94.6251 341.624 94.6248 341.215C94.6248 340.353 94.2739 339.574 93.7115 339.012C93.4225 338.722 93.0791 338.492 92.701 338.335C92.323 338.178 91.9177 338.098 91.5084 338.098C90.6467 338.098 89.8676 338.449 89.3052 339.012C89.0154 339.301 88.7856 339.644 88.6288 340.022C88.4721 340.4 88.3916 340.806 88.392 341.215C88.3971 341.726 88.521 342.2 88.7325 342.624ZM58.2702 359.889C58.3874 360.015 58.4646 360.173 58.492 360.343L67.3305 365.539V355.281L58.2702 349.889V359.889ZM77.6497 350.028L68.8732 355.286V365.549L77.6497 360.364V350.028ZM68.0631 343.635L59.4982 348.759L68.1096 353.945L76.4733 348.867L68.0631 343.635Z" fill="white"/>
<path fill-rule="evenodd" clip-rule="evenodd" d="M58.2701 359.889C58.3874 360.015 58.4646 360.173 58.492 360.343L67.3304 365.539V355.281L58.2701 349.889V359.889ZM77.6496 350.028L68.8731 355.286V365.549L77.6496 360.364V350.028ZM68.0631 343.635L59.4981 348.759L68.1095 353.945L76.4732 348.867L68.0631 343.635Z" fill="#008790"/>
</svg>
