<svg width="427" height="427" viewBox="0 0 427 427" fill="none" xmlns="http://www.w3.org/2000/svg">
<rect width="427" height="427" fill="#0D0F35"/>
<g opacity="0.1">
<path fill-rule="evenodd" clip-rule="evenodd" d="M212.878 79.0745C230.455 72.5081 249.777 72.3084 267.485 78.5102C285.194 84.712 300.17 96.9232 309.809 113.021C318.495 127.527 322.354 144.363 320.914 161.116C329.499 165.099 336.763 171.545 341.744 179.691C347.727 189.477 350.023 201.075 348.22 212.402C346.418 223.729 340.634 234.041 331.909 241.485C323.185 248.93 312.092 253.018 300.623 253.017C300.622 253.017 300.623 253.017 300.623 253.017H277.672V239.246H300.623C308.815 239.248 316.74 236.327 322.971 231.01C329.203 225.693 333.334 218.327 334.621 210.237C335.909 202.147 334.268 193.864 329.995 186.874C325.722 179.885 319.097 174.65 311.309 172.108L305.739 170.29L306.643 164.501C309.04 149.143 305.98 133.431 297.995 120.096C290.01 106.76 277.604 96.6443 262.934 91.5068C248.264 86.3692 232.258 86.5346 217.697 91.9742C203.137 97.4139 190.942 107.784 183.234 121.281L181.015 125.168L176.561 124.717C175.079 124.567 173.589 124.492 172.099 124.492C160.534 124.492 149.442 129.086 141.264 137.264C133.086 145.442 128.492 156.533 128.492 168.099C128.492 169.376 128.57 170.687 128.696 172.08L129.38 179.639L121.79 179.586C121.643 179.584 121.518 179.579 121.425 179.575C113.578 179.622 106.062 182.76 100.509 188.313C94.9139 193.908 91.7705 201.497 91.7705 209.41C91.7705 217.323 94.9139 224.912 100.509 230.507C106.105 236.103 113.694 239.246 121.607 239.246H149.147V253.017H121.607C110.041 253.017 98.9499 248.422 90.7721 240.244C82.5942 232.067 78 220.975 78 209.41C78 197.845 82.5942 186.753 90.7721 178.576C97.3153 172.032 105.724 167.783 114.748 166.346C115.193 151.765 121.18 137.873 131.527 127.527C142.287 116.767 156.88 110.722 172.097 110.722M212.878 79.0745C196.661 85.1329 182.876 96.2574 173.532 110.739L212.878 79.0745ZM173.532 110.739C173.055 110.727 172.576 110.722 172.097 110.722L173.532 110.739ZM122.239 165.829C122.244 165.829 122.254 165.83 122.239 165.829V165.829Z" fill="white"/>
<path fill-rule="evenodd" clip-rule="evenodd" d="M206.524 310.393V181.869H220.295V310.393H206.524Z" fill="white"/>
<path fill-rule="evenodd" clip-rule="evenodd" d="M243.246 282.852V200.229H257.017V282.852C257.017 283.461 257.258 284.045 257.689 284.475C258.119 284.905 258.703 285.147 259.312 285.147H286.853V298.918H259.312C255.051 298.918 250.964 297.225 247.952 294.212C244.939 291.199 243.246 287.113 243.246 282.852Z" fill="white"/>
<path fill-rule="evenodd" clip-rule="evenodd" d="M213.41 317.279C207.072 317.279 201.935 322.416 201.935 328.754C201.935 335.092 207.072 340.229 213.41 340.229C219.748 340.229 224.886 335.092 224.886 328.754C224.886 322.416 219.748 317.279 213.41 317.279ZM188.164 328.754C188.164 314.811 199.467 303.508 213.41 303.508C227.353 303.508 238.656 314.811 238.656 328.754C238.656 342.697 227.353 354 213.41 354C199.467 354 188.164 342.697 188.164 328.754Z" fill="white"/>
<path fill-rule="evenodd" clip-rule="evenodd" d="M305.212 280.557C298.875 280.557 293.737 285.695 293.737 292.033C293.737 298.37 298.875 303.508 305.212 303.508C311.55 303.508 316.688 298.37 316.688 292.033C316.688 285.695 311.55 280.557 305.212 280.557ZM279.967 292.033C279.967 278.09 291.27 266.787 305.212 266.787C319.155 266.787 330.458 278.09 330.458 292.033C330.458 305.976 319.155 317.279 305.212 317.279C291.27 317.279 279.967 305.976 279.967 292.033Z" fill="white"/>
<path fill-rule="evenodd" clip-rule="evenodd" d="M169.803 282.852V200.229H183.573V282.852C183.573 287.113 181.88 291.199 178.868 294.212C175.855 297.225 171.768 298.918 167.508 298.918H139.967V285.147H167.508C168.116 285.147 168.7 284.905 169.13 284.475C169.561 284.045 169.803 283.461 169.803 282.852Z" fill="white"/>
<path fill-rule="evenodd" clip-rule="evenodd" d="M121.607 280.557C115.269 280.557 110.131 285.695 110.131 292.033C110.131 298.37 115.269 303.508 121.607 303.508C127.944 303.508 133.082 298.37 133.082 292.033C133.082 285.695 127.944 280.557 121.607 280.557ZM96.3608 292.033C96.3608 278.09 107.664 266.787 121.607 266.787C135.55 266.787 146.853 278.09 146.853 292.033C146.853 305.976 135.55 317.279 121.607 317.279C107.664 317.279 96.3608 305.976 96.3608 292.033Z" fill="white"/>
</g>
<path fill-rule="evenodd" clip-rule="evenodd" d="M75.8292 325.66C79.8468 324.159 84.2633 324.113 88.311 325.531C92.3587 326.948 95.7817 329.74 97.985 333.419C99.9704 336.735 100.852 340.583 100.523 344.412C102.486 345.323 104.146 346.796 105.284 348.658C106.652 350.895 107.177 353.546 106.765 356.135C106.353 358.724 105.031 361.081 103.036 362.782C101.042 364.484 98.5066 365.418 95.8852 365.418C95.8851 365.418 95.8853 365.418 95.8852 365.418H90.6393V362.271H95.8852C97.7576 362.271 99.569 361.603 100.993 360.388C102.418 359.173 103.362 357.489 103.656 355.64C103.951 353.791 103.576 351.897 102.599 350.3C101.622 348.702 100.108 347.506 98.3278 346.925L97.0546 346.509L97.2612 345.186C97.8092 341.676 97.1097 338.084 95.2845 335.036C93.4593 331.988 90.6237 329.676 87.2706 328.502C83.9175 327.327 80.2589 327.365 76.9308 328.608C73.6026 329.852 70.8154 332.222 69.0536 335.307L68.5462 336.196L67.5283 336.093C67.1894 336.058 66.849 336.041 66.5084 336.041C63.8649 336.041 61.3295 337.091 59.4603 338.96C57.5911 340.83 56.541 343.365 56.541 346.008C56.541 346.3 56.5589 346.6 56.5877 346.918L56.7439 348.646L55.0092 348.634C54.9756 348.634 54.9469 348.632 54.9258 348.631C53.1321 348.642 51.4141 349.359 50.145 350.629C48.866 351.908 48.1475 353.642 48.1475 355.451C48.1475 357.26 48.866 358.994 50.145 360.273C51.4239 361.552 53.1585 362.271 54.9672 362.271H61.2623V365.418H54.9672C52.3237 365.418 49.7885 364.368 47.9193 362.499C46.0501 360.63 45 358.094 45 355.451C45 352.807 46.0501 350.272 47.9193 348.403C49.4149 346.907 51.3369 345.936 53.3995 345.608C53.5013 342.275 54.8697 339.1 57.2347 336.735C59.6941 334.275 63.0298 332.894 66.508 332.893M75.8292 325.66C72.1226 327.045 68.9717 329.587 66.836 332.898L75.8292 325.66ZM66.836 332.898C66.7267 332.895 66.6173 332.893 66.508 332.893L66.836 332.898ZM55.1117 345.489C55.113 345.489 55.1152 345.49 55.1117 345.489V345.489Z" fill="#0099DB"/>
<path fill-rule="evenodd" clip-rule="evenodd" d="M74.377 378.533V349.156H77.5245V378.533H74.377Z" fill="white"/>
<path fill-rule="evenodd" clip-rule="evenodd" d="M82.7705 372.238V353.352H85.918V372.238C85.918 372.377 85.9733 372.51 86.0717 372.609C86.1701 372.707 86.3035 372.762 86.4426 372.762H92.7377V375.91H86.4426C85.4687 375.91 84.5347 375.523 83.846 374.834C83.1574 374.146 82.7705 373.212 82.7705 372.238Z" fill="white"/>
<path fill-rule="evenodd" clip-rule="evenodd" d="M75.9509 380.107C74.5023 380.107 73.328 381.281 73.328 382.729C73.328 384.178 74.5023 385.352 75.9509 385.352C77.3995 385.352 78.5739 384.178 78.5739 382.729C78.5739 381.281 77.3995 380.107 75.9509 380.107ZM70.1804 382.729C70.1804 379.543 72.764 376.959 75.9509 376.959C79.1379 376.959 81.7214 379.543 81.7214 382.729C81.7214 385.916 79.1379 388.5 75.9509 388.5C72.764 388.5 70.1804 385.916 70.1804 382.729Z" fill="white"/>
<path fill-rule="evenodd" clip-rule="evenodd" d="M96.9343 371.713C95.4857 371.713 94.3114 372.887 94.3114 374.336C94.3114 375.785 95.4857 376.959 96.9343 376.959C98.3829 376.959 99.5573 375.785 99.5573 374.336C99.5573 372.887 98.3829 371.713 96.9343 371.713ZM91.1638 374.336C91.1638 371.149 93.7474 368.566 96.9343 368.566C100.121 368.566 102.705 371.149 102.705 374.336C102.705 377.523 100.121 380.107 96.9343 380.107C93.7474 380.107 91.1638 377.523 91.1638 374.336Z" fill="white"/>
<path fill-rule="evenodd" clip-rule="evenodd" d="M65.9835 372.238V353.352H69.131V372.238C69.131 373.212 68.7441 374.146 68.0555 374.834C67.3668 375.523 66.4328 375.91 65.4589 375.91H59.1638V372.762H65.4589C65.598 372.762 65.7315 372.707 65.8298 372.609C65.9282 372.51 65.9835 372.377 65.9835 372.238Z" fill="white"/>
<path fill-rule="evenodd" clip-rule="evenodd" d="M54.9673 371.713C53.5186 371.713 52.3443 372.887 52.3443 374.336C52.3443 375.785 53.5186 376.959 54.9673 376.959C56.4159 376.959 57.5902 375.785 57.5902 374.336C57.5902 372.887 56.4159 371.713 54.9673 371.713ZM49.1968 374.336C49.1968 371.149 51.7803 368.566 54.9673 368.566C58.1542 368.566 60.7377 371.149 60.7377 374.336C60.7377 377.523 58.1542 380.107 54.9673 380.107C51.7803 380.107 49.1968 377.523 49.1968 374.336Z" fill="white"/>
<path d="M131.2 370.32V342.32H135.2V370.32H131.2Z" fill="white"/>
<path d="M156.223 370.64C154.089 370.64 152.103 370.28 150.263 369.56C148.449 368.84 146.876 367.84 145.543 366.56C144.209 365.253 143.169 363.733 142.423 362C141.676 360.267 141.303 358.373 141.303 356.32C141.303 354.267 141.676 352.373 142.423 350.64C143.169 348.907 144.209 347.4 145.543 346.12C146.876 344.813 148.449 343.8 150.263 343.08C152.076 342.36 154.063 342 156.223 342C158.356 342 160.316 342.36 162.103 343.08C163.916 343.773 165.489 344.773 166.823 346.08C168.183 347.36 169.223 348.867 169.943 350.6C170.689 352.333 171.063 354.24 171.063 356.32C171.063 358.4 170.689 360.307 169.943 362.04C169.223 363.773 168.183 365.293 166.823 366.6C165.489 367.88 163.916 368.88 162.103 369.6C160.316 370.293 158.356 370.64 156.223 370.64ZM156.223 367.08C157.769 367.08 159.196 366.813 160.503 366.28C161.836 365.747 162.983 365 163.943 364.04C164.929 363.053 165.689 361.907 166.223 360.6C166.783 359.293 167.063 357.867 167.063 356.32C167.063 354.773 166.783 353.347 166.223 352.04C165.689 350.733 164.929 349.6 163.943 348.64C162.983 347.653 161.836 346.893 160.503 346.36C159.196 345.827 157.769 345.56 156.223 345.56C154.649 345.56 153.196 345.827 151.863 346.36C150.556 346.893 149.409 347.653 148.423 348.64C147.436 349.6 146.663 350.733 146.103 352.04C145.569 353.347 145.303 354.773 145.303 356.32C145.303 357.867 145.569 359.293 146.103 360.6C146.663 361.907 147.436 363.053 148.423 364.04C149.409 365 150.556 365.747 151.863 366.28C153.196 366.813 154.649 367.08 156.223 367.08Z" fill="white"/>
<path d="M182.346 370.32V345.8H172.746V342.32H195.906V345.8H186.306V370.32H182.346Z" fill="white"/>
</svg>
