<svg width="427" height="427" viewBox="0 0 427 427" fill="none" xmlns="http://www.w3.org/2000/svg">
<rect width="427" height="427" fill="#0D0F35"/>
<g opacity="0.1">
<path d="M213.976 44C209.415 44 204.983 44.9415 201.059 47.1615L76.9169 118.853C68.8832 123.479 64 132.224 64 141.521V284.647C64 293.941 68.8832 302.67 76.9169 307.312L109.337 325.995C125.089 333.761 130.9 333.636 138.069 333.636C161.389 333.636 174.702 319.485 174.702 294.89V153.687C174.702 151.691 172.973 150.262 171.013 150.262H155.462C153.469 150.262 151.773 151.727 151.773 153.687V294.963C151.773 305.865 140.417 316.833 121.99 307.616L88.2878 287.849C87.0972 287.2 86.1778 286.017 86.1778 284.687V141.561C86.1778 140.206 87.0862 138.821 88.2878 138.136L212.17 66.7016C213.332 66.0349 214.713 66.0349 215.859 66.7016L339.742 138.136C340.921 138.843 341.852 140.162 341.852 141.561V284.687C341.852 286.054 341.167 287.453 340.005 288.112L215.863 359.547C214.764 360.181 213.299 360.181 212.174 359.547L180.281 340.571C179.329 340.014 178.035 340.058 177.12 340.571C168.317 345.561 166.661 346.139 158.407 349.004C156.374 349.711 153.279 350.814 159.462 354.279L201.107 378.823C205.071 381.117 209.489 382.249 214.024 382.249C218.621 382.249 222.973 381.15 226.941 378.823L351.083 307.389C359.117 302.714 364 294.018 364 284.724V141.598C364 132.301 359.117 123.575 351.083 118.929L226.941 47.2384C223.05 45.0184 218.588 44.0769 214.024 44.0769L213.976 44ZM247.188 146.272C211.837 146.272 190.784 161.318 190.784 186.334C190.784 213.443 211.679 220.931 245.609 224.286C286.199 228.261 289.364 234.221 289.364 242.211C289.364 256.069 278.315 261.978 252.199 261.978C219.391 261.978 212.178 253.787 209.763 237.434C209.478 235.683 208.13 234.273 206.338 234.273H190.22C189.248 234.294 188.322 234.69 187.635 235.377C186.948 236.064 186.552 236.99 186.531 237.962C186.531 258.853 197.894 283.559 252.163 283.559C291.444 283.559 314.102 268.173 314.102 241.123C314.102 214.381 295.8 207.153 257.698 202.109C219.233 196.98 215.526 194.526 215.526 185.503C215.526 178.059 218.64 168.102 247.155 168.102C272.626 168.102 282.041 173.597 285.902 190.771C286.239 192.383 287.66 193.701 289.327 193.701H305.446C306.435 193.701 307.395 193.093 308.083 192.383C308.757 191.624 309.233 190.771 309.138 189.745C306.647 160.167 286.924 146.254 247.199 146.254L247.188 146.272Z" fill="white"/>
</g>
<path d="M222.424 348.872C221.941 348.872 221.472 348.971 221.056 349.206L207.909 356.799C207.058 357.289 206.541 358.215 206.541 359.2V374.358C206.541 375.343 207.058 376.267 207.909 376.759L211.342 378.737C213.01 379.56 213.626 379.547 214.385 379.547C216.855 379.547 218.265 378.048 218.265 375.443V360.488C218.265 360.277 218.082 360.126 217.874 360.126H216.227C216.016 360.126 215.836 360.281 215.836 360.488V375.451C215.836 376.605 214.634 377.767 212.682 376.791L209.113 374.697C208.987 374.629 208.889 374.503 208.889 374.363V359.204C208.889 359.061 208.986 358.914 209.113 358.841L222.233 351.276C222.356 351.205 222.502 351.205 222.624 351.276L235.744 358.841C235.869 358.916 235.967 359.056 235.967 359.204V374.363C235.967 374.507 235.895 374.655 235.772 374.725L222.624 382.291C222.508 382.358 222.353 382.358 222.233 382.291L218.856 380.281C218.755 380.222 218.618 380.227 218.521 380.281C217.589 380.81 217.413 380.871 216.539 381.174C216.324 381.249 215.996 381.366 216.651 381.733L221.061 384.332C221.481 384.575 221.949 384.695 222.429 384.695C222.916 384.695 223.377 384.579 223.797 384.332L236.945 376.767C237.796 376.272 238.313 375.351 238.313 374.366V359.208C238.313 358.223 237.796 357.299 236.945 356.807L223.797 349.215C223.385 348.979 222.913 348.88 222.429 348.88L222.424 348.872ZM225.942 359.703C222.198 359.703 219.968 361.297 219.968 363.946C219.968 366.817 222.181 367.61 225.775 367.966C230.073 368.386 230.409 369.018 230.409 369.864C230.409 371.332 229.238 371.957 226.472 371.957C222.998 371.957 222.234 371.09 221.978 369.358C221.948 369.173 221.805 369.023 221.615 369.023H219.908C219.805 369.025 219.707 369.067 219.635 369.14C219.562 369.213 219.52 369.311 219.518 369.414C219.518 371.626 220.721 374.243 226.469 374.243C230.629 374.243 233.029 372.614 233.029 369.749C233.029 366.916 231.09 366.151 227.055 365.617C222.981 365.074 222.588 364.814 222.588 363.858C222.588 363.07 222.918 362.015 225.938 362.015C228.636 362.015 229.633 362.597 230.042 364.416C230.078 364.587 230.228 364.726 230.405 364.726H232.112C232.216 364.726 232.318 364.662 232.391 364.587C232.462 364.506 232.513 364.416 232.503 364.307C232.239 361.175 230.15 359.701 225.943 359.701L225.942 359.703Z" fill="#83CD29"/>
<path d="M145.128 329.001C144.981 329.001 144.836 329.039 144.709 329.112C144.582 329.186 144.477 329.292 144.403 329.42C144.33 329.547 144.291 329.691 144.29 329.838V351.193C144.29 351.403 144.192 351.59 144.011 351.696C143.922 351.748 143.821 351.775 143.718 351.775C143.615 351.775 143.514 351.748 143.425 351.696L139.935 349.686C139.681 349.539 139.392 349.461 139.098 349.461C138.804 349.461 138.515 349.539 138.26 349.686L124.331 357.725C123.81 358.025 123.493 358.604 123.493 359.205V375.283C123.493 375.578 123.57 375.867 123.717 376.122C123.864 376.377 124.076 376.588 124.331 376.735L138.26 384.775C138.515 384.922 138.804 385 139.098 385C139.392 385 139.681 384.922 139.935 384.775L153.865 376.735C154.12 376.588 154.331 376.377 154.479 376.122C154.626 375.867 154.703 375.578 154.702 375.283V335.198C154.702 334.588 154.37 334.016 153.837 333.718L145.547 329.084C145.416 329.011 145.272 328.999 145.128 329.001ZM55.5203 349.071C55.2545 349.082 55.005 349.128 54.7664 349.267L40.8373 357.306C40.5821 357.453 40.3702 357.664 40.2232 357.919C40.0762 358.174 39.9992 358.463 40 358.758L40.0283 380.337C40.0283 380.637 40.1835 380.915 40.4473 381.062C40.7061 381.217 41.027 381.217 41.2846 381.062L49.5474 376.316C50.0711 376.006 50.4125 375.464 50.4125 374.865V364.788C50.4125 364.186 50.7287 363.635 51.2506 363.337L54.768 361.299C55.0221 361.151 55.3112 361.074 55.6052 361.075C55.8994 361.074 56.1887 361.151 56.4429 361.299L59.9587 363.335C60.4798 363.634 60.796 364.186 60.796 364.786V374.864C60.796 375.464 61.1452 376.008 61.6612 376.315L69.9239 381.06C70.1839 381.216 70.504 381.216 70.7612 381.06C71.0172 380.913 71.1802 380.635 71.1802 380.335L71.2081 358.757C71.2098 358.462 71.1331 358.173 70.986 357.918C70.8389 357.663 70.6266 357.451 70.3709 357.305L56.4417 349.267C56.2062 349.128 55.9556 349.082 55.6879 349.071H55.521L55.5203 349.071ZM180.691 349.267C180.397 349.266 180.108 349.343 179.853 349.49L165.924 357.53C165.404 357.831 165.086 358.38 165.086 358.981V375.06C165.086 375.664 165.426 376.212 165.951 376.511L179.769 384.387C180.279 384.678 180.902 384.7 181.416 384.414L189.79 379.752C190.056 379.605 190.236 379.329 190.236 379.027C190.237 378.724 190.08 378.452 189.817 378.301L175.804 370.262C175.541 370.112 175.358 369.809 175.358 369.508V364.48C175.358 364.18 175.544 363.904 175.804 363.754L180.158 361.242C180.418 361.092 180.736 361.092 180.996 361.242L185.353 363.754C185.481 363.828 185.586 363.933 185.66 364.061C185.734 364.188 185.772 364.333 185.772 364.48V368.444C185.771 368.591 185.81 368.736 185.883 368.863C185.957 368.99 186.063 369.096 186.19 369.169C186.451 369.32 186.768 369.321 187.028 369.169L195.374 364.313C195.892 364.012 196.212 363.461 196.212 362.862V358.982C196.213 358.688 196.135 358.399 195.988 358.144C195.841 357.89 195.63 357.678 195.375 357.531L181.529 349.491C181.275 349.344 180.986 349.267 180.691 349.268L180.691 349.267ZM139.042 361.271C139.12 361.271 139.196 361.29 139.265 361.326L144.038 364.09C144.168 364.165 144.262 364.303 144.262 364.453V369.98C144.262 370.13 144.169 370.268 144.038 370.343L139.265 373.106C139.135 373.18 138.977 373.18 138.846 373.106L134.073 370.343C133.943 370.268 133.849 370.129 133.849 369.98V364.452C133.849 364.302 133.943 364.165 134.073 364.089L138.846 361.326C138.911 361.288 138.969 361.271 139.042 361.271Z" fill="white"/>
<path d="M97.3653 349.183C97.0712 349.182 96.7821 349.259 96.5273 349.406L82.5978 357.418C82.0771 357.718 81.7605 358.297 81.7605 358.897V374.976C81.7597 375.27 81.8368 375.56 81.9838 375.814C82.1308 376.069 82.3427 376.281 82.5978 376.427L96.5273 384.467C96.7817 384.615 97.0706 384.692 97.3648 384.692C97.6589 384.692 97.9478 384.615 98.2022 384.467L112.132 376.427C112.387 376.28 112.598 376.069 112.746 375.814C112.893 375.559 112.97 375.27 112.969 374.976V358.897C112.969 358.295 112.653 357.717 112.131 357.418L98.2018 349.406C97.9473 349.258 97.658 349.181 97.3638 349.182L97.3653 349.183ZM180.664 363.531C180.609 363.531 180.547 363.531 180.496 363.558L177.817 365.122C177.767 365.15 177.725 365.19 177.696 365.239C177.666 365.288 177.65 365.344 177.649 365.401V368.472C177.649 368.587 177.716 368.693 177.817 368.751L180.496 370.286C180.543 370.315 180.596 370.33 180.65 370.33C180.704 370.33 180.757 370.315 180.803 370.286L183.483 368.751C183.582 368.694 183.65 368.587 183.65 368.472V365.401C183.65 365.285 183.582 365.18 183.483 365.122L180.803 363.558C180.753 363.529 180.719 363.531 180.663 363.531L180.664 363.531Z" fill="#83CD29"/>
</svg>
