<svg width="427" height="427" viewBox="0 0 427 427" fill="none" xmlns="http://www.w3.org/2000/svg">
<rect width="427" height="427" fill="#0D0F35"/>
<g opacity="0.1">
<path d="M139.877 223.792C146.96 223.792 152.247 222.486 155.593 219.914C158.902 217.368 161.188 212.956 162.387 206.803C163.504 201.051 163.078 197.035 161.122 194.867C159.122 192.654 154.798 191.531 148.27 191.531H136.951L130.677 223.792H139.877ZM102.857 263.53C102.332 263.53 101.833 263.296 101.499 262.89C101.164 262.485 101.028 261.951 101.129 261.435L117.758 175.945C117.919 175.118 118.644 174.521 119.487 174.521H155.328C166.592 174.521 174.976 177.577 180.246 183.605C185.544 189.665 187.18 198.135 185.108 208.78C184.265 213.117 182.815 217.145 180.799 220.751C178.78 224.362 176.112 227.702 172.867 230.682C168.984 234.314 164.588 236.947 159.814 238.497C155.116 240.026 149.083 240.802 141.881 240.802H127.369L123.224 262.106C123.063 262.933 122.339 263.53 121.496 263.53H102.857Z" fill="black"/>
<path d="M138.403 193.291H148.27C156.149 193.291 158.886 195.018 159.816 196.047C161.358 197.757 161.649 201.36 160.658 206.469C159.544 212.187 157.479 216.242 154.519 218.519C151.488 220.85 146.562 222.032 139.877 222.032H132.813L138.403 193.291ZM155.328 172.761H119.487C117.801 172.761 116.351 173.955 116.03 175.609L99.4002 261.099C99.1995 262.131 99.4707 263.198 100.139 264.009C100.809 264.821 101.805 265.29 102.857 265.29H121.496C123.182 265.29 124.632 264.096 124.953 262.442L128.821 242.561H141.882C149.268 242.561 155.486 241.756 160.361 240.17C165.375 238.542 169.988 235.782 174.071 231.967C177.447 228.863 180.228 225.379 182.336 221.61C184.444 217.841 185.959 213.637 186.837 209.116C189.018 197.91 187.247 188.937 181.572 182.448C175.953 176.02 167.123 172.761 155.328 172.761ZM128.54 225.551H139.877C147.392 225.551 152.989 224.137 156.667 221.308C160.346 218.478 162.826 213.756 164.116 207.138C165.349 200.785 164.787 196.301 162.43 193.689C160.07 191.077 155.351 189.771 148.27 189.771H135.5L128.54 225.551ZM155.328 176.281C166.11 176.281 173.976 179.108 178.92 184.763C183.863 190.418 185.352 198.311 183.38 208.445C182.568 212.619 181.195 216.436 179.262 219.894C177.326 223.354 174.799 226.518 171.676 229.386C167.954 232.866 163.82 235.346 159.27 236.823C154.721 238.304 148.926 239.042 141.882 239.042H125.917L121.496 261.771H102.857L119.487 176.281H155.328Z" fill="white"/>
<path d="M227.844 240.802C227.318 240.802 226.819 240.567 226.485 240.161C226.15 239.756 226.014 239.223 226.115 238.706L233.471 200.88C234.171 197.283 233.998 194.701 232.985 193.61C232.366 192.943 230.503 191.824 224.998 191.824H211.671L202.422 239.377C202.261 240.204 201.536 240.802 200.693 240.802H182.202C181.676 240.802 181.177 240.567 180.843 240.161C180.508 239.756 180.372 239.222 180.473 238.706L197.102 153.216C197.263 152.389 197.988 151.792 198.831 151.792H217.323C217.849 151.792 218.347 152.027 218.682 152.432C219.016 152.838 219.152 153.371 219.052 153.887L215.039 174.521H229.375C240.297 174.521 247.703 176.445 252.017 180.403C256.413 184.441 257.785 190.897 256.095 199.595L248.358 239.377C248.197 240.204 247.472 240.802 246.629 240.802H227.844Z" fill="black"/>
<path d="M217.323 150.032H198.831C197.145 150.032 195.695 151.227 195.374 152.88L178.744 238.371C178.543 239.402 178.815 240.469 179.484 241.28C180.153 242.092 181.15 242.561 182.202 242.561H200.693C202.379 242.561 203.829 241.367 204.151 239.713L213.123 193.584H224.998C230.494 193.584 231.648 194.757 231.694 194.807C232.028 195.166 232.466 196.826 231.742 200.544L224.386 238.371C224.185 239.402 224.457 240.469 225.126 241.28C225.795 242.092 226.792 242.561 227.844 242.561H246.629C248.315 242.561 249.765 241.367 250.087 239.713L257.823 199.93C259.639 190.592 258.086 183.587 253.208 179.108C248.554 174.837 240.759 172.761 229.375 172.761H217.174L220.781 154.223C220.981 153.191 220.71 152.124 220.041 151.313C219.372 150.502 218.375 150.032 217.323 150.032ZM217.323 153.552L212.902 176.281H229.375C239.741 176.281 246.89 178.088 250.825 181.699C254.76 185.312 255.939 191.167 254.366 199.259L246.629 239.042H227.844L235.2 201.216C236.037 196.913 235.729 193.978 234.276 192.413C232.822 190.848 229.729 190.064 224.998 190.064H210.219L200.693 239.042H182.202L198.831 153.552H217.323Z" fill="white"/>
<path d="M285.354 223.792C292.436 223.792 297.724 222.486 301.069 219.914C304.379 217.368 306.665 212.957 307.864 206.803C308.981 201.051 308.555 197.035 306.599 194.867C304.599 192.654 300.274 191.531 293.747 191.531H282.428L276.153 223.792H285.354ZM248.334 263.53C247.809 263.53 247.31 263.296 246.976 262.89C246.641 262.485 246.505 261.951 246.605 261.435L263.235 175.945C263.396 175.118 264.121 174.521 264.964 174.521H300.805C312.069 174.521 320.453 177.577 325.723 183.605C331.021 189.664 332.656 198.135 330.585 208.78C329.741 213.117 328.292 217.145 326.275 220.751C324.257 224.362 321.588 227.702 318.344 230.682C314.46 234.314 310.064 236.947 305.291 238.497C300.593 240.026 294.559 240.802 287.358 240.802H272.845L268.702 262.106C268.54 262.933 267.816 263.53 266.972 263.53H248.334Z" fill="black"/>
<path d="M283.88 193.291H293.747C301.625 193.291 304.362 195.018 305.292 196.047C306.835 197.757 307.126 201.36 306.134 206.468C305.02 212.187 302.954 216.242 299.995 218.519C296.965 220.85 292.039 222.032 285.354 222.032H278.29L283.88 193.291ZM300.805 172.761H264.964C263.278 172.761 261.829 173.955 261.507 175.609L244.877 261.099C244.677 262.131 244.948 263.198 245.616 264.009C246.286 264.821 247.282 265.29 248.334 265.29H266.973C268.659 265.29 270.109 264.096 270.43 262.442L274.297 242.561H287.358C294.744 242.561 300.962 241.756 305.837 240.17C310.851 238.542 315.465 235.782 319.548 231.966C322.925 228.863 325.705 225.379 327.812 221.61C329.92 217.841 331.435 213.637 332.314 209.116C334.495 197.91 332.723 188.937 327.049 182.447C321.43 176.02 312.6 172.761 300.805 172.761ZM274.017 225.551H285.354C292.869 225.551 298.466 224.137 302.144 221.308C305.823 218.478 308.303 213.756 309.592 207.138C310.826 200.785 310.264 196.301 307.907 193.689C305.547 191.077 300.828 189.771 293.747 189.771H280.976L274.017 225.551ZM300.805 176.281C311.587 176.281 319.452 179.108 324.396 184.763C329.34 190.418 330.829 198.311 328.856 208.445C328.044 212.619 326.671 216.436 324.738 219.894C322.803 223.354 320.275 226.518 317.152 229.386C313.431 232.866 309.296 235.346 304.747 236.823C300.197 238.304 294.402 239.042 287.358 239.042H271.393L266.973 261.771H248.334L264.964 176.281H300.805Z" fill="white"/>
</g>
<g clip-path="url(#clip0_1_1502)">
<mask id="mask0_1_1502" style="mask-type:luminance" maskUnits="userSpaceOnUse" x="42" y="309" width="145" height="76">
<path d="M42.0872 347C42.0872 367.939 74.3837 384.914 114.222 384.914C154.06 384.914 186.357 367.939 186.357 347C186.357 326.061 154.06 309.086 114.222 309.086C74.3837 309.086 42.0872 326.061 42.0872 347Z" fill="white"/>
</mask>
<g mask="url(#mask0_1_1502)">
<path d="M42.0872 347C42.0872 367.939 74.3837 384.914 114.222 384.914C154.06 384.914 186.357 367.939 186.357 347C186.357 326.061 154.06 309.086 114.222 309.086C74.3837 309.086 42.0872 326.061 42.0872 347Z" fill="url(#paint0_radial_1_1502)"/>
</g>
<mask id="mask1_1_1502" style="mask-type:luminance" maskUnits="userSpaceOnUse" x="39" y="304" width="151" height="86">
<path d="M39.0815 304.768H189.362V389.232H39.0815V304.768Z" fill="white"/>
</mask>
<g mask="url(#mask1_1_1502)">
<path d="M114.222 382.099C152.504 382.099 183.539 366.385 183.539 347C183.539 327.615 152.504 311.9 114.222 311.9C75.9399 311.9 44.905 327.615 44.905 347C44.905 366.385 75.9399 382.099 114.222 382.099Z" fill="#777BB3"/>
</g>
<mask id="mask2_1_1502" style="mask-type:luminance" maskUnits="userSpaceOnUse" x="39" y="304" width="151" height="86">
<path d="M39.0815 304.768H189.362V389.232H39.0815V304.768Z" fill="white"/>
</mask>
<g mask="url(#mask2_1_1502)">
<path d="M81.2789 351.352C84.4267 351.352 86.7767 350.772 88.2636 349.628C89.7345 348.497 90.7505 346.536 91.283 343.801C91.7795 341.245 91.5903 339.46 90.721 338.497C89.8321 337.513 87.9103 337.014 85.009 337.014H79.9785L77.1897 351.352H81.2789ZM64.8255 369.014C64.592 369.014 64.3702 368.909 64.2217 368.729C64.073 368.549 64.0127 368.311 64.0574 368.082L71.4483 330.087C71.5198 329.719 71.842 329.454 72.2166 329.454H88.1459C93.1521 329.454 96.8784 330.812 99.2205 333.491C101.575 336.184 102.302 339.949 101.382 344.68C101.007 346.608 100.362 348.398 99.4663 350.001C98.569 351.605 97.3832 353.09 95.9412 354.414C94.215 356.028 92.2614 357.199 90.1397 357.888C88.0517 358.567 85.3701 358.912 82.1696 358.912H75.7195L73.8775 368.381C73.8061 368.748 73.4841 369.014 73.1094 369.014H64.8255Z" fill="black"/>
<path d="M80.6238 337.796H85.0091C88.5107 337.796 89.727 338.564 90.1403 339.021C90.8259 339.781 90.9554 341.382 90.5147 343.653C90.0195 346.194 89.1016 347.997 87.7861 349.009C86.4394 350.045 84.2498 350.57 81.2789 350.57H78.1392L80.6238 337.796ZM88.1459 328.672H72.2164C71.4671 328.672 70.8229 329.202 70.6799 329.937L63.289 367.933C63.1998 368.392 63.3204 368.866 63.6175 369.226C63.915 369.587 64.358 369.795 64.8255 369.795H73.1092C73.8588 369.795 74.503 369.265 74.646 368.53L76.3648 359.694H82.1697C85.4524 359.694 88.2159 359.336 90.3827 358.631C92.611 357.907 94.6612 356.681 96.4758 354.985C97.9766 353.606 99.2127 352.057 100.149 350.382C101.086 348.707 101.759 346.839 102.15 344.829C103.119 339.849 102.332 335.861 99.8099 332.977C97.3125 330.12 93.388 328.672 88.1459 328.672ZM76.2401 352.134H81.2789C84.6188 352.134 87.1065 351.505 88.7411 350.248C90.3759 348.99 91.4785 346.892 92.0514 343.95C92.5996 341.127 92.3499 339.134 91.3024 337.973C90.2535 336.812 88.1561 336.232 85.0091 336.232H79.3334L76.2401 352.134ZM88.1459 330.236C92.938 330.236 96.4338 331.492 98.6312 334.006C100.828 336.519 101.49 340.027 100.613 344.531C100.252 346.386 99.6422 348.083 98.783 349.619C97.9228 351.157 96.7996 352.563 95.4116 353.838C93.7575 355.385 91.9199 356.487 89.8979 357.144C87.8759 357.802 85.3005 358.13 82.1697 358.13H75.0741L73.1092 368.231H64.8255L72.2164 330.236H88.1459Z" fill="white"/>
<path d="M120.375 358.912C120.141 358.912 119.92 358.808 119.771 358.627C119.622 358.447 119.562 358.21 119.607 357.981L122.876 341.169C123.187 339.57 123.11 338.423 122.66 337.938C122.385 337.641 121.557 337.144 119.11 337.144H113.187L109.076 358.279C109.005 358.646 108.683 358.912 108.308 358.912H100.09C99.8559 358.912 99.6344 358.808 99.4856 358.627C99.3369 358.447 99.2767 358.21 99.3213 357.981L106.712 319.985C106.784 319.617 107.106 319.352 107.481 319.352H115.699C115.933 319.352 116.154 319.456 116.303 319.637C116.452 319.817 116.512 320.054 116.467 320.283L114.684 329.454H121.056C125.91 329.454 129.201 330.309 131.118 332.068C133.073 333.863 133.682 336.732 132.931 340.598L129.492 358.279C129.421 358.646 129.099 358.912 128.724 358.912H120.375Z" fill="black"/>
<path d="M115.699 318.57H107.481C106.731 318.57 106.087 319.101 105.944 319.836L98.553 357.831C98.4637 358.29 98.5843 358.764 98.8817 359.125C99.1791 359.485 99.6221 359.694 100.09 359.694H108.308C109.057 359.694 109.702 359.163 109.845 358.428L113.832 337.926H119.11C121.553 337.926 122.066 338.447 122.086 338.47C122.234 338.629 122.429 339.367 122.108 341.02L118.838 357.831C118.749 358.29 118.87 358.764 119.167 359.125C119.464 359.485 119.907 359.694 120.375 359.694H128.724C129.473 359.694 130.118 359.163 130.261 358.428L133.699 340.747C134.506 336.596 133.816 333.483 131.648 331.492C129.58 329.594 126.115 328.672 121.056 328.672H115.633L117.236 320.433C117.325 319.974 117.204 319.5 116.907 319.139C116.61 318.779 116.167 318.57 115.699 318.57ZM115.699 320.134L113.734 330.236H121.056C125.662 330.236 128.84 331.039 130.589 332.644C132.338 334.25 132.862 336.852 132.163 340.449L128.724 358.13H120.375L123.644 341.318C124.016 339.406 123.88 338.101 123.234 337.406C122.587 336.71 121.213 336.362 119.11 336.362H112.542L108.308 358.13H100.09L107.481 320.134H115.699Z" fill="white"/>
<path d="M145.935 351.352C149.083 351.352 151.433 350.772 152.92 349.628C154.391 348.497 155.407 346.536 155.939 343.801C156.436 341.245 156.247 339.46 155.377 338.497C154.488 337.513 152.567 337.014 149.665 337.014H144.635L141.846 351.352H145.935ZM129.482 369.014C129.248 369.014 129.027 368.909 128.878 368.729C128.729 368.549 128.669 368.311 128.714 368.082L136.104 330.087C136.176 329.719 136.498 329.454 136.873 329.454H152.802C157.809 329.454 161.535 330.812 163.877 333.491C166.232 336.184 166.959 339.949 166.038 344.68C165.663 346.608 165.019 348.398 164.122 350.001C163.225 351.605 162.039 353.09 160.597 354.414C158.871 356.028 156.918 357.199 154.796 357.888C152.708 358.567 150.026 358.912 146.826 358.912H140.375L138.534 368.381C138.463 368.748 138.141 369.014 137.766 369.014H129.482Z" fill="black"/>
<path d="M145.28 337.796H149.665C153.167 337.796 154.383 338.564 154.797 339.021C155.482 339.781 155.612 341.382 155.171 343.652C154.676 346.194 153.758 347.997 152.442 349.009C151.096 350.045 148.906 350.57 145.935 350.57H142.796L145.28 337.796ZM152.802 328.672H136.873C136.124 328.672 135.479 329.202 135.336 329.937L127.946 367.933C127.856 368.392 127.977 368.866 128.274 369.226C128.571 369.587 129.014 369.795 129.482 369.795H137.766C138.515 369.795 139.159 369.265 139.302 368.53L141.021 359.694H146.826C150.109 359.694 152.872 359.336 155.039 358.631C157.267 357.907 159.318 356.681 161.133 354.985C162.633 353.606 163.869 352.057 164.806 350.382C165.743 348.707 166.416 346.839 166.806 344.829C167.775 339.849 166.988 335.861 164.466 332.976C161.969 330.12 158.045 328.672 152.802 328.672ZM140.897 352.134H145.935C149.275 352.134 151.763 351.505 153.397 350.248C155.032 348.99 156.135 346.892 156.708 343.95C157.256 341.127 157.006 339.134 155.959 337.973C154.91 336.812 152.812 336.232 149.665 336.232H143.99L140.897 352.134ZM152.802 330.236C157.594 330.236 161.09 331.492 163.287 334.006C165.485 336.519 166.146 340.027 165.269 344.531C164.909 346.386 164.298 348.083 163.439 349.619C162.579 351.157 161.456 352.563 160.068 353.838C158.414 355.385 156.576 356.487 154.554 357.144C152.532 357.802 149.957 358.13 146.826 358.13H139.73L137.766 368.231H129.482L136.873 330.236H152.802Z" fill="white"/>
</g>
</g>
<defs>
<radialGradient id="paint0_radial_1_1502" cx="0" cy="0" r="1" gradientUnits="userSpaceOnUse" gradientTransform="translate(85.3973 322.415) scale(94.7234 94.6455)">
<stop stop-color="#AEB2D5"/>
<stop offset="0.3" stop-color="#AEB2D5"/>
<stop offset="0.75" stop-color="#484C89"/>
<stop offset="1" stop-color="#484C89"/>
</radialGradient>
<clipPath id="clip0_1_1502">
<rect width="148.444" height="80" fill="white" transform="translate(40 307)"/>
</clipPath>
</defs>
</svg>
