<svg width="427" height="427" viewBox="0 0 427 427" fill="none" xmlns="http://www.w3.org/2000/svg">
<rect width="427" height="427" fill="#0D0F35"/>
<g opacity="0.1">
<path d="M202.609 327.611C256.2 360.157 307.99 367.729 333.562 342.19C355.287 320.521 353.106 279.967 332.009 235.462L334.878 232.751C336.685 235.54 341.382 240.823 345.719 239.644C362.441 283.326 361.066 323.313 337.863 346.485C305.836 378.47 241.722 368.879 180.09 327.611H202.609Z" fill="#A5A5B6"/>
<path d="M74.6993 83.6658C53.6065 104.724 55.058 143.593 74.4959 186.594L74.6651 211.069C47.7255 158.711 44.827 108.281 72.0909 81.0608C106.364 46.8421 177.346 60.21 242.728 109.041C241.825 111.43 241.644 117.294 248.149 121.63L244.42 126.055C178.582 71.2859 106.444 51.973 74.6993 83.6658Z" fill="#A5A5B6"/>
<path d="M74.2244 303.289C74.2244 314.496 83.325 320.887 94.5587 320.887H170.552V319.035C170.552 317.947 170.766 316.869 171.184 315.864C171.601 314.859 172.213 313.946 172.984 313.177C173.755 312.408 174.67 311.799 175.677 311.383C176.684 310.968 177.763 310.755 178.852 310.756H221.109C223.308 310.756 225.416 311.629 226.971 313.181C228.525 314.733 229.398 316.839 229.398 319.035V320.91H305.391C316.625 320.91 325.737 314.519 325.737 303.312L74.2244 303.289Z" fill="white"/>
<path d="M307.919 243.28H302.262V267.501C302.263 268.727 302.023 269.942 301.554 271.076C301.085 272.209 300.397 273.239 299.529 274.107C298.661 274.975 297.63 275.663 296.496 276.133C295.362 276.603 294.146 276.844 292.917 276.844H107.126C105.898 276.846 104.682 276.606 103.547 276.137C102.412 275.669 101.38 274.982 100.511 274.115C99.6422 273.248 98.9529 272.219 98.4826 271.086C98.0123 269.953 97.7702 268.739 97.7702 267.512V160.046C97.7702 158.819 98.0123 157.605 98.4826 156.472C98.9529 155.339 99.6422 154.31 100.511 153.443C101.38 152.577 102.412 151.889 103.547 151.421C104.682 150.953 105.898 150.713 107.126 150.714H224.588C224.016 148.69 224.06 146.542 224.715 144.543L226.883 137.886H106.106C100.488 137.886 95.1009 140.114 91.1287 144.081C87.1566 148.048 84.925 153.429 84.925 159.039V268.52C84.925 274.13 87.1566 279.51 91.1287 283.477C95.1009 287.444 100.488 289.673 106.106 289.673H293.914C299.518 289.651 304.884 287.413 308.839 283.449C312.794 279.484 315.014 274.116 315.014 268.52V240.536C313.07 242.295 310.542 243.273 307.919 243.28Z" fill="white"/>
<path d="M369.502 174.368L362.047 171.994C360.988 171.651 360.073 170.967 359.444 170.05C358.815 169.133 358.507 168.033 358.569 166.923C358.627 165.87 358.662 164.816 358.662 163.739C358.662 162.662 358.662 161.609 358.569 160.555C358.506 159.446 358.813 158.348 359.442 157.432C360.072 156.516 360.988 155.835 362.047 155.496L369.467 153.088C370.099 152.882 370.685 152.553 371.191 152.121C371.696 151.689 372.112 151.162 372.413 150.569C372.714 149.977 372.896 149.331 372.947 148.668C372.999 148.006 372.919 147.34 372.713 146.708L369.235 136.126C369.03 135.494 368.702 134.91 368.271 134.405C367.839 133.9 367.312 133.485 366.72 133.184C366.128 132.883 365.482 132.702 364.819 132.65C364.157 132.599 363.49 132.678 362.859 132.884L355.439 135.292C354.384 135.637 353.245 135.625 352.197 135.259C351.15 134.893 350.252 134.193 349.643 133.266C348.491 131.468 347.233 129.739 345.875 128.091C345.174 127.228 344.779 126.158 344.752 125.048C344.725 123.938 345.067 122.85 345.724 121.954L350.361 115.644C351.146 114.553 351.465 113.194 351.248 111.868C351.03 110.541 350.295 109.355 349.202 108.57L340.194 102.04C339.101 101.256 337.741 100.938 336.412 101.155C335.084 101.372 333.897 102.107 333.111 103.198L328.555 109.473C327.904 110.374 326.974 111.033 325.908 111.35C324.843 111.666 323.702 111.621 322.665 111.222C320.672 110.45 318.636 109.792 316.567 109.253C315.495 108.965 314.549 108.33 313.876 107.449C313.203 106.567 312.841 105.488 312.846 104.379V96.5292C312.846 95.1873 312.312 93.9004 311.362 92.9516C310.412 92.0027 309.123 91.4697 307.78 91.4697H296.639C295.295 91.4697 294.006 92.0027 293.056 92.9516C292.106 93.9004 291.573 95.1873 291.573 96.5292V104.321C291.577 105.431 291.213 106.512 290.538 107.394C289.862 108.275 288.914 108.909 287.84 109.196C285.772 109.738 283.736 110.395 281.742 111.164C280.711 111.569 279.574 111.623 278.51 111.317C277.445 111.012 276.511 110.363 275.852 109.473L271.273 103.175C270.885 102.635 270.394 102.177 269.829 101.827C269.263 101.476 268.634 101.24 267.977 101.133C267.321 101.025 266.649 101.048 266.001 101.2C265.353 101.352 264.742 101.629 264.201 102.017L255.182 108.547C254.089 109.332 253.353 110.518 253.136 111.845C252.919 113.171 253.237 114.529 254.022 115.621L258.66 121.931C259.311 122.829 259.65 123.916 259.622 125.025C259.595 126.134 259.204 127.203 258.509 128.068C257.148 129.712 255.886 131.437 254.73 133.231C254.122 134.159 253.224 134.861 252.176 135.227C251.128 135.594 249.988 135.604 248.933 135.257L241.513 132.849C240.236 132.437 238.847 132.548 237.651 133.158C236.456 133.768 235.551 134.827 235.137 136.103L231.659 146.685C231.246 147.962 231.357 149.351 231.968 150.547C232.579 151.743 233.639 152.648 234.917 153.064L242.337 155.473C243.396 155.812 244.312 156.493 244.941 157.409C245.571 158.325 245.878 159.423 245.814 160.532C245.745 161.586 245.722 162.651 245.722 163.716C245.722 164.781 245.722 165.846 245.814 166.9C245.877 168.01 245.569 169.11 244.94 170.027C244.311 170.944 243.395 171.628 242.337 171.971L234.917 174.379C233.64 174.793 232.579 175.696 231.969 176.89C231.358 178.084 231.247 179.471 231.659 180.747L235.137 191.329C235.554 192.606 236.46 193.665 237.658 194.275C238.855 194.885 240.246 194.995 241.525 194.583L248.945 192.175C249.999 191.824 251.14 191.833 252.189 192.199C253.238 192.566 254.136 193.27 254.741 194.201C255.903 195.996 257.164 197.723 258.521 199.376C259.216 200.241 259.607 201.31 259.634 202.419C259.661 203.528 259.323 204.615 258.671 205.512L254.034 211.822C253.646 212.362 253.368 212.973 253.216 213.62C253.064 214.267 253.041 214.938 253.149 215.594C253.256 216.249 253.492 216.878 253.843 217.442C254.194 218.007 254.653 218.497 255.193 218.885L264.213 225.427C264.753 225.816 265.364 226.095 266.012 226.247C266.661 226.4 267.332 226.423 267.99 226.316C268.647 226.208 269.276 225.972 269.842 225.621C270.407 225.269 270.897 224.81 271.285 224.269L275.864 217.982C276.514 217.081 277.444 216.421 278.509 216.102C279.574 215.784 280.715 215.826 281.753 216.222C283.747 216.995 285.783 217.656 287.851 218.202C288.925 218.488 289.874 219.122 290.549 220.004C291.225 220.886 291.588 221.966 291.584 223.076V230.857C291.584 232.199 292.118 233.485 293.068 234.434C294.018 235.383 295.307 235.916 296.65 235.916H307.791C309.135 235.916 310.424 235.383 311.374 234.434C312.324 233.485 312.858 232.199 312.858 230.857V223.076C312.852 221.968 313.215 220.888 313.888 220.007C314.561 219.125 315.507 218.491 316.579 218.202C318.647 217.657 320.683 216.996 322.677 216.222C323.715 215.824 324.856 215.781 325.922 216.099C326.988 216.418 327.917 217.08 328.566 217.982L333.146 224.269C333.534 224.81 334.025 225.27 334.592 225.621C335.158 225.973 335.788 226.209 336.447 226.317C337.105 226.424 337.777 226.401 338.427 226.248C339.076 226.095 339.688 225.816 340.229 225.427L349.237 218.885C349.777 218.497 350.236 218.007 350.587 217.442C350.938 216.878 351.174 216.249 351.281 215.594C351.389 214.938 351.366 214.267 351.214 213.62C351.063 212.973 350.784 212.362 350.396 211.822L345.759 205.512C345.101 204.617 344.76 203.529 344.787 202.419C344.814 201.308 345.209 200.239 345.91 199.376C347.262 197.723 348.52 195.995 349.677 194.201C350.285 193.273 351.183 192.571 352.231 192.205C353.279 191.839 354.419 191.828 355.474 192.175L362.893 194.583C364.171 194.995 365.56 194.884 366.756 194.274C367.951 193.664 368.855 192.605 369.27 191.329L372.748 180.747C372.956 180.116 373.037 179.449 372.986 178.786C372.935 178.123 372.754 177.477 372.452 176.884C372.15 176.291 371.734 175.764 371.228 175.332C370.722 174.9 370.135 174.572 369.502 174.368ZM302.261 201.669C294.743 201.669 287.393 199.442 281.142 195.271C274.891 191.099 270.018 185.17 267.141 178.233C264.264 171.296 263.511 163.662 264.978 156.298C266.445 148.934 270.065 142.169 275.382 136.86C280.698 131.55 287.471 127.935 294.845 126.47C302.219 125.005 309.863 125.757 316.809 128.63C323.755 131.504 329.692 136.37 333.869 142.613C338.046 148.856 340.275 156.196 340.275 163.705C340.275 173.773 336.27 183.43 329.141 190.549C322.012 197.669 312.343 201.669 302.261 201.669Z" fill="#A5A5B6"/>
<path d="M227.961 230.405L224.877 229.409C224.435 229.269 224.053 228.985 223.791 228.604C223.528 228.222 223.401 227.764 223.428 227.302C223.428 226.862 223.428 226.422 223.428 225.982C223.428 225.531 223.428 225.091 223.428 224.651C223.403 224.189 223.531 223.732 223.793 223.351C224.055 222.97 224.436 222.686 224.877 222.544L227.961 221.548C228.492 221.376 228.934 221 229.188 220.503C229.442 220.005 229.489 219.428 229.317 218.897L227.88 214.497C227.795 214.233 227.66 213.989 227.48 213.778C227.301 213.567 227.082 213.393 226.835 213.267C226.588 213.141 226.319 213.065 226.042 213.044C225.766 213.022 225.488 213.056 225.225 213.142L222.141 214.15C221.702 214.29 221.229 214.283 220.794 214.13C220.358 213.978 219.985 213.688 219.73 213.305C219.251 212.556 218.729 211.837 218.164 211.151C217.873 210.791 217.709 210.346 217.696 209.883C217.684 209.421 217.824 208.967 218.095 208.592L220.008 205.976C220.336 205.524 220.472 204.961 220.385 204.41C220.298 203.858 219.996 203.364 219.544 203.035L215.799 200.314C215.347 199.986 214.783 199.851 214.231 199.937C213.679 200.024 213.184 200.326 212.855 200.777L210.942 203.394C210.674 203.77 210.288 204.046 209.844 204.179C209.401 204.311 208.927 204.291 208.496 204.123C207.664 203.806 206.817 203.532 205.957 203.301C205.511 203.183 205.117 202.919 204.838 202.552C204.559 202.185 204.41 201.736 204.415 201.275V198.045C204.415 197.486 204.193 196.95 203.797 196.555C203.401 196.16 202.865 195.938 202.305 195.938H197.668C197.115 195.947 196.589 196.173 196.202 196.568C195.816 196.962 195.601 197.493 195.604 198.045V201.275C195.607 201.737 195.456 202.187 195.174 202.553C194.893 202.92 194.498 203.183 194.051 203.301C193.191 203.532 192.344 203.806 191.512 204.123C191.081 204.291 190.606 204.311 190.163 204.179C189.72 204.046 189.334 203.77 189.066 203.394L187.153 200.777C186.991 200.554 186.786 200.366 186.551 200.222C186.316 200.078 186.055 199.981 185.782 199.938C185.51 199.895 185.232 199.906 184.964 199.971C184.696 200.035 184.443 200.152 184.22 200.314L180.464 203.035C180.012 203.364 179.71 203.858 179.623 204.41C179.536 204.961 179.671 205.524 180 205.976L181.913 208.592C182.184 208.967 182.324 209.421 182.312 209.883C182.299 210.346 182.134 210.791 181.843 211.151C181.283 211.84 180.76 212.559 180.278 213.305C180.024 213.689 179.651 213.981 179.215 214.133C178.78 214.286 178.306 214.292 177.867 214.15L174.783 213.142C174.251 212.971 173.673 213.017 173.175 213.271C172.677 213.525 172.301 213.966 172.128 214.497L170.702 218.897C170.53 219.426 170.575 220.003 170.827 220.499C171.079 220.996 171.518 221.373 172.047 221.548L175.131 222.544C175.573 222.684 175.957 222.967 176.221 223.348C176.486 223.73 176.616 224.188 176.592 224.651C176.592 225.091 176.592 225.531 176.592 225.982C176.592 226.434 176.592 226.862 176.592 227.302C176.618 227.766 176.488 228.225 176.224 228.607C175.959 228.988 175.575 229.271 175.131 229.409L172.047 230.405C171.518 230.58 171.079 230.957 170.827 231.454C170.575 231.951 170.53 232.527 170.702 233.057L172.128 237.468C172.303 237.997 172.681 238.435 173.178 238.686C173.676 238.938 174.253 238.983 174.783 238.811L177.867 237.815C178.306 237.671 178.78 237.676 179.216 237.829C179.652 237.982 180.025 238.274 180.278 238.66C180.763 239.4 181.285 240.115 181.843 240.802C182.134 241.162 182.299 241.607 182.312 242.07C182.324 242.532 182.184 242.986 181.913 243.361L180 245.989C179.838 246.212 179.721 246.464 179.656 246.732C179.592 247 179.581 247.278 179.624 247.55C179.667 247.822 179.763 248.083 179.907 248.318C180.051 248.552 180.24 248.757 180.464 248.918L184.22 251.639C184.443 251.801 184.696 251.918 184.964 251.982C185.232 252.047 185.51 252.058 185.782 252.015C186.055 251.972 186.316 251.876 186.551 251.732C186.786 251.588 186.991 251.399 187.153 251.176L189.066 248.559C189.335 248.185 189.721 247.91 190.164 247.778C190.607 247.646 191.081 247.664 191.512 247.83C192.342 248.152 193.189 248.427 194.051 248.652C194.505 248.774 194.905 249.044 195.186 249.42C195.468 249.796 195.615 250.255 195.604 250.724V253.966C195.604 254.522 195.825 255.055 196.219 255.448C196.612 255.841 197.146 256.062 197.703 256.062H202.34C202.897 256.062 203.432 255.842 203.828 255.449C204.223 255.056 204.447 254.523 204.45 253.966V250.724C204.447 250.264 204.596 249.816 204.875 249.449C205.154 249.083 205.547 248.819 205.992 248.698C206.853 248.473 207.701 248.199 208.531 247.876C208.962 247.71 209.436 247.692 209.878 247.824C210.321 247.956 210.707 248.231 210.977 248.606L212.89 251.222C213.219 251.673 213.714 251.975 214.266 252.062C214.818 252.149 215.382 252.013 215.834 251.685L219.579 248.965C219.802 248.803 219.991 248.599 220.135 248.364C220.279 248.129 220.376 247.868 220.419 247.596C220.462 247.324 220.451 247.046 220.386 246.778C220.322 246.511 220.205 246.258 220.043 246.035L218.13 243.407C217.858 243.032 217.718 242.579 217.731 242.116C217.743 241.654 217.908 241.208 218.199 240.848C218.761 240.164 219.283 239.449 219.764 238.707C220.017 238.32 220.39 238.028 220.826 237.875C221.262 237.722 221.737 237.717 222.176 237.861L225.259 238.857C225.79 239.029 226.367 238.984 226.864 238.733C227.362 238.481 227.739 238.043 227.914 237.514L229.352 233.103C229.443 232.835 229.48 232.551 229.459 232.268C229.438 231.986 229.36 231.711 229.23 231.459C229.1 231.207 228.921 230.984 228.703 230.803C228.485 230.622 228.232 230.487 227.961 230.405ZM199.986 241.763C196.858 241.763 193.801 240.837 191.2 239.101C188.599 237.365 186.573 234.898 185.376 232.012C184.18 229.125 183.867 225.949 184.478 222.886C185.089 219.822 186.596 217.008 188.809 214.8C191.022 212.592 193.84 211.089 196.909 210.481C199.977 209.872 203.157 210.187 206.046 211.384C208.935 212.581 211.404 214.607 213.14 217.206C214.876 219.804 215.802 222.858 215.799 225.982C215.799 228.056 215.39 230.109 214.596 232.024C213.801 233.939 212.636 235.68 211.167 237.145C209.699 238.611 207.955 239.773 206.037 240.565C204.119 241.358 202.063 241.765 199.986 241.763Z" fill="#A5A5B6"/>
<path d="M150.449 203.254L149.475 201.333C149.336 201.058 149.289 200.746 149.344 200.443C149.398 200.14 149.55 199.863 149.777 199.654C149.997 199.457 150.217 199.26 150.426 199.052C150.635 198.843 150.832 198.623 151.029 198.403C151.236 198.174 151.513 198.019 151.818 197.965C152.122 197.91 152.436 197.959 152.71 198.102L154.634 199.075C154.799 199.159 154.978 199.209 155.162 199.224C155.346 199.239 155.531 199.217 155.707 199.16C155.882 199.103 156.045 199.012 156.185 198.892C156.325 198.772 156.44 198.626 156.524 198.461L157.915 195.717C158.086 195.387 158.118 195.003 158.005 194.649C157.892 194.295 157.643 194 157.312 193.83L155.388 192.834C155.114 192.696 154.893 192.471 154.759 192.195C154.624 191.919 154.585 191.607 154.646 191.306C154.773 190.725 154.866 190.138 154.924 189.546C154.956 189.243 155.086 188.958 155.296 188.737C155.505 188.515 155.782 188.368 156.083 188.319L158.217 187.983C158.583 187.921 158.91 187.717 159.126 187.416C159.343 187.115 159.433 186.74 159.376 186.374L158.889 183.34C158.861 183.159 158.797 182.985 158.701 182.829C158.605 182.672 158.479 182.536 158.331 182.429C158.182 182.321 158.013 182.244 157.834 182.202C157.656 182.159 157.47 182.153 157.289 182.183L155.156 182.518C154.852 182.568 154.54 182.515 154.27 182.368C153.999 182.221 153.785 181.989 153.66 181.708C153.418 181.169 153.147 180.644 152.849 180.133C152.696 179.865 152.636 179.554 152.677 179.249C152.719 178.943 152.861 178.66 153.081 178.443L154.6 176.926C154.731 176.797 154.835 176.643 154.907 176.473C154.978 176.303 155.015 176.121 155.015 175.936C155.015 175.752 154.978 175.57 154.907 175.4C154.835 175.23 154.731 175.076 154.6 174.946L152.42 172.758C152.157 172.496 151.8 172.349 151.429 172.349C151.057 172.349 150.701 172.496 150.438 172.758L148.93 174.31C148.715 174.528 148.433 174.669 148.129 174.711C147.825 174.753 147.516 174.693 147.249 174.541C146.737 174.239 146.207 173.968 145.661 173.731C145.382 173.605 145.152 173.39 145.007 173.12C144.862 172.85 144.811 172.539 144.861 172.237L145.197 170.107C145.254 169.742 145.164 169.369 144.947 169.07C144.73 168.77 144.403 168.569 144.038 168.509L140.989 168.023C140.808 167.993 140.623 168 140.444 168.042C140.265 168.084 140.096 168.161 139.948 168.269C139.799 168.376 139.673 168.512 139.577 168.669C139.481 168.825 139.418 168.999 139.389 169.181L139.053 171.322C139.003 171.625 138.855 171.903 138.63 172.112C138.406 172.322 138.118 172.451 137.813 172.48C137.224 172.539 136.64 172.632 136.062 172.758C135.757 172.82 135.439 172.778 135.16 172.64C134.881 172.502 134.656 172.274 134.52 171.994L133.535 170.072C133.366 169.743 133.074 169.494 132.722 169.379C132.371 169.264 131.987 169.293 131.657 169.458L128.898 170.859C128.567 171.03 128.318 171.324 128.205 171.678C128.092 172.032 128.124 172.416 128.295 172.747L129.269 174.669C129.409 174.944 129.454 175.257 129.398 175.561C129.341 175.865 129.186 176.141 128.956 176.347C128.747 176.533 128.527 176.741 128.318 176.949C128.109 177.158 127.901 177.366 127.715 177.586C127.509 177.816 127.232 177.971 126.928 178.028C126.624 178.084 126.31 178.039 126.034 177.899L124.11 176.915C123.777 176.748 123.392 176.719 123.039 176.834C122.685 176.949 122.391 177.198 122.22 177.528L120.817 180.272C120.651 180.604 120.622 180.989 120.737 181.342C120.852 181.695 121.101 181.989 121.432 182.159L123.356 183.144C123.63 183.282 123.851 183.507 123.985 183.783C124.119 184.059 124.159 184.371 124.098 184.672C123.97 185.249 123.878 185.832 123.82 186.42C123.789 186.725 123.658 187.011 123.449 187.235C123.24 187.458 122.963 187.607 122.66 187.659L120.527 187.995C120.162 188.054 119.835 188.256 119.618 188.555C119.401 188.854 119.311 189.227 119.368 189.592L119.855 192.637C119.915 193.002 120.116 193.329 120.416 193.545C120.716 193.762 121.089 193.852 121.455 193.795L123.588 193.46C123.891 193.407 124.202 193.458 124.473 193.602C124.744 193.747 124.959 193.978 125.083 194.258C125.326 194.801 125.597 195.33 125.895 195.845C126.047 196.111 126.107 196.42 126.065 196.723C126.023 197.027 125.882 197.308 125.663 197.523L124.144 199.052C124.013 199.181 123.909 199.335 123.837 199.505C123.766 199.675 123.729 199.857 123.729 200.042C123.729 200.226 123.766 200.408 123.837 200.578C123.909 200.748 124.013 200.902 124.144 201.032L126.301 203.254C126.564 203.517 126.92 203.664 127.292 203.664C127.664 203.664 128.02 203.517 128.283 203.254L129.813 201.738C130.029 201.519 130.31 201.378 130.614 201.336C130.918 201.295 131.228 201.354 131.494 201.506C132.005 201.804 132.532 202.074 133.071 202.317C133.353 202.441 133.585 202.655 133.732 202.925C133.879 203.195 133.932 203.507 133.883 203.81L133.546 205.941C133.49 206.306 133.579 206.679 133.797 206.978C134.014 207.277 134.341 207.479 134.706 207.538L137.755 208.025C138.12 208.081 138.494 207.992 138.793 207.775C139.093 207.558 139.295 207.232 139.355 206.867L139.691 204.736C139.741 204.434 139.889 204.156 140.114 203.947C140.338 203.737 140.625 203.608 140.931 203.579C141.52 203.52 142.104 203.427 142.682 203.301C142.982 203.237 143.294 203.274 143.571 203.406C143.848 203.538 144.073 203.757 144.212 204.03L145.197 205.952C145.279 206.117 145.392 206.264 145.531 206.385C145.67 206.506 145.832 206.597 146.007 206.655C146.182 206.712 146.367 206.733 146.55 206.718C146.734 206.703 146.912 206.651 147.076 206.566L149.823 205.165C149.994 205.085 150.147 204.971 150.272 204.83C150.397 204.689 150.492 204.524 150.55 204.345C150.609 204.166 150.63 203.977 150.613 203.789C150.596 203.602 150.54 203.42 150.449 203.254ZM131.9 195.439C130.428 193.969 129.425 192.096 129.019 190.057C128.612 188.017 128.821 185.903 129.618 183.982C130.414 182.061 131.763 180.419 133.495 179.264C135.226 178.109 137.261 177.492 139.343 177.492C141.425 177.492 143.46 178.109 145.191 179.264C146.922 180.419 148.272 182.061 149.068 183.982C149.865 185.903 150.073 188.017 149.667 190.057C149.261 192.096 148.258 193.969 146.786 195.439C144.814 197.404 142.144 198.509 139.359 198.513C136.574 198.517 133.901 197.421 131.923 195.463L131.9 195.439Z" fill="#A5A5B6"/>
<path d="M319.42 180.905C328.932 171.405 328.932 156.003 319.42 146.504C309.908 137.004 294.486 137.004 284.974 146.504C275.462 156.003 275.462 171.405 284.974 180.905C294.486 190.404 309.908 190.404 319.42 180.905Z" fill="#A5A5B6"/>
</g>
<g clip-path="url(#clip0_1_1603)">
<path d="M71.5415 379C82.8406 385.862 93.7599 387.458 99.1515 382.074C103.732 377.505 103.272 368.955 98.8241 359.572L99.4288 359C99.8098 359.588 100.8 360.702 101.715 360.453C105.24 369.663 104.95 378.094 100.058 382.98C93.3058 389.723 79.7881 387.701 66.7938 379H71.5415Z" fill="#0099DB"/>
<path d="M44.5733 327.567C40.1262 332.007 40.4322 340.202 44.5304 349.268L44.5661 354.429C38.8862 343.389 38.2751 332.757 44.0234 327.018C51.2495 319.803 66.2152 322.622 80.0002 332.917C79.8098 333.421 79.7717 334.657 81.1431 335.572L80.3569 336.505C66.4757 324.957 51.2663 320.885 44.5733 327.567Z" fill="#0099DB"/>
<path d="M44.4729 373.872C44.4729 376.235 46.3917 377.582 48.7602 377.582H64.7824V377.192C64.7824 376.962 64.8276 376.735 64.9156 376.523C65.0036 376.311 65.1326 376.119 65.2951 375.957C65.4576 375.795 65.6506 375.666 65.8629 375.578C66.0752 375.491 66.3027 375.446 66.5325 375.446H75.4418C75.9053 375.446 76.3499 375.63 76.6776 375.958C77.0054 376.285 77.1895 376.729 77.1895 377.192V377.587H93.2117C95.5802 377.587 97.5014 376.24 97.5014 373.877L44.4729 373.872Z" fill="white"/>
<path d="M93.7446 361.22H92.5518V366.327C92.5521 366.585 92.5014 366.841 92.4025 367.08C92.3036 367.319 92.1586 367.536 91.9756 367.719C91.7926 367.902 91.5754 368.047 91.3362 368.147C91.097 368.246 90.8406 368.297 90.5817 368.297H51.4098C51.1509 368.297 50.8944 368.246 50.6551 368.147C50.4158 368.049 50.1983 367.904 50.0151 367.721C49.8319 367.538 49.6866 367.321 49.5875 367.083C49.4883 366.844 49.4373 366.588 49.4373 366.329V343.671C49.4373 343.412 49.4883 343.156 49.5875 342.917C49.6866 342.679 49.8319 342.462 50.0151 342.279C50.1983 342.096 50.4158 341.951 50.6551 341.853C50.8944 341.754 51.1509 341.703 51.4098 341.703H76.1751C76.0546 341.277 76.064 340.824 76.202 340.402L76.6591 338.999H51.1947C50.0103 338.999 48.8745 339.469 48.037 340.305C47.1995 341.141 46.729 342.276 46.729 343.459V366.541C46.729 367.724 47.1995 368.859 48.037 369.695C48.8745 370.531 50.0103 371.001 51.1947 371.001H90.7919C91.9733 370.997 93.1048 370.525 93.9386 369.689C94.7723 368.853 95.2405 367.721 95.2405 366.541V360.641C94.8306 361.012 94.2977 361.218 93.7446 361.22Z" fill="white"/>
<path d="M106.729 346.691L105.157 346.19C104.934 346.118 104.741 345.974 104.608 345.78C104.475 345.587 104.411 345.355 104.424 345.121C104.436 344.899 104.443 344.677 104.443 344.45C104.443 344.223 104.443 344.001 104.424 343.778C104.41 343.545 104.475 343.313 104.608 343.12C104.741 342.927 104.934 342.783 105.157 342.712L106.721 342.204C106.855 342.16 106.978 342.091 107.085 342C107.191 341.909 107.279 341.798 107.343 341.673C107.406 341.548 107.444 341.412 107.455 341.272C107.466 341.133 107.449 340.992 107.406 340.859L106.672 338.628C106.629 338.495 106.56 338.371 106.469 338.265C106.378 338.158 106.267 338.071 106.142 338.008C106.017 337.944 105.881 337.906 105.741 337.895C105.602 337.884 105.461 337.901 105.328 337.944L103.764 338.452C103.541 338.525 103.301 338.522 103.08 338.445C102.859 338.368 102.67 338.22 102.542 338.025C102.299 337.646 102.034 337.281 101.747 336.934C101.6 336.752 101.516 336.526 101.511 336.292C101.505 336.058 101.577 335.829 101.715 335.64L102.693 334.309C102.859 334.079 102.926 333.793 102.88 333.513C102.834 333.234 102.679 332.983 102.449 332.818L100.55 331.441C100.319 331.276 100.032 331.209 99.7523 331.255C99.4722 331.3 99.2218 331.455 99.0561 331.685L98.0955 333.008C97.9584 333.198 97.7622 333.337 97.5376 333.404C97.3129 333.471 97.0725 333.461 96.8538 333.377C96.4336 333.214 96.0043 333.076 95.5681 332.962C95.3422 332.901 95.1427 332.767 95.0008 332.581C94.8588 332.396 94.7825 332.168 94.7835 331.934V330.279C94.7835 329.996 94.671 329.725 94.4707 329.525C94.2704 329.325 93.9987 329.213 93.7154 329.213H91.3664C91.0831 329.213 90.8115 329.325 90.6111 329.525C90.4108 329.725 90.2983 329.996 90.2983 330.279V331.922C90.2992 332.156 90.2225 332.384 90.0801 332.57C89.9377 332.756 89.7377 332.889 89.5112 332.95C89.0753 333.064 88.6461 333.203 88.2256 333.365C88.0082 333.45 87.7686 333.462 87.5441 333.397C87.3196 333.333 87.1227 333.196 86.9839 333.008L86.0184 331.68C85.9365 331.567 85.8331 331.47 85.7138 331.396C85.5946 331.322 85.462 331.273 85.3235 331.25C85.185 331.227 85.0435 331.232 84.9069 331.264C84.7703 331.296 84.6413 331.355 84.5274 331.436L82.6257 332.813C82.3954 332.979 82.2402 333.229 82.1944 333.508C82.1486 333.788 82.2158 334.074 82.3813 334.305L83.359 335.635C83.4964 335.824 83.5677 336.053 83.562 336.287C83.5563 336.521 83.4738 336.746 83.3272 336.929C83.0402 337.276 82.7741 337.639 82.5304 338.017C82.4022 338.213 82.2129 338.361 81.9919 338.438C81.771 338.516 81.5306 338.518 81.3083 338.445L79.7439 337.937C79.4746 337.85 79.1817 337.873 78.9296 338.002C78.6776 338.131 78.4869 338.354 78.3996 338.623L77.6663 340.854C77.5792 341.123 77.6026 341.416 77.7314 341.668C77.8601 341.92 78.0837 342.111 78.3531 342.199L79.9175 342.707C80.1408 342.778 80.3339 342.922 80.4667 343.115C80.5994 343.308 80.6641 343.54 80.6508 343.774C80.6361 343.996 80.6312 344.22 80.6312 344.445C80.6312 344.669 80.6312 344.894 80.6508 345.116C80.6638 345.35 80.599 345.582 80.4664 345.775C80.3337 345.969 80.1407 346.113 79.9175 346.185L78.3531 346.693C78.0839 346.78 77.8603 346.971 77.7315 347.222C77.6028 347.474 77.5793 347.767 77.6663 348.036L78.3996 350.267C78.4875 350.536 78.6786 350.759 78.931 350.888C79.1835 351.016 79.4767 351.04 79.7464 350.953L81.3107 350.445C81.533 350.371 81.7736 350.373 81.9948 350.45C82.216 350.527 82.4052 350.676 82.5328 350.872C82.7777 351.251 83.0437 351.615 83.3297 351.963C83.4762 352.146 83.5587 352.371 83.5645 352.605C83.5702 352.839 83.4989 353.068 83.3614 353.257L82.3837 354.587C82.3019 354.701 82.2432 354.83 82.2112 354.966C82.1792 355.103 82.1744 355.244 82.1971 355.383C82.2198 355.521 82.2695 355.653 82.3435 355.772C82.4175 355.891 82.5142 355.995 82.6282 356.077L84.5298 357.456C84.6436 357.538 84.7726 357.597 84.9092 357.629C85.0459 357.661 85.1876 357.666 85.3261 357.643C85.4647 357.62 85.5974 357.571 85.7166 357.497C85.8358 357.423 85.9392 357.326 86.0208 357.212L86.9863 355.886C87.1234 355.696 87.3194 355.557 87.544 355.49C87.7686 355.423 88.009 355.432 88.228 355.515C88.6485 355.678 89.0777 355.817 89.5137 355.932C89.7401 355.993 89.9402 356.126 90.0825 356.312C90.2249 356.498 90.3017 356.726 90.3007 356.96V358.601C90.3007 358.883 90.4133 359.155 90.6136 359.355C90.8139 359.555 91.0856 359.667 91.3689 359.667H93.7178C94.0011 359.667 94.2728 359.555 94.4731 359.355C94.6734 359.155 94.786 358.883 94.786 358.601V356.96C94.7849 356.726 94.8613 356.499 95.0032 356.313C95.1451 356.127 95.3446 355.993 95.5706 355.932C96.0067 355.818 96.4359 355.678 96.8563 355.515C97.0752 355.431 97.3158 355.422 97.5405 355.489C97.7651 355.556 97.9612 355.696 98.098 355.886L99.0635 357.212C99.1453 357.326 99.2489 357.423 99.3683 357.497C99.4878 357.571 99.6207 357.621 99.7594 357.643C99.8982 357.666 100.04 357.661 100.177 357.629C100.314 357.597 100.443 357.538 100.557 357.456L102.456 356.077C102.57 355.995 102.667 355.891 102.741 355.772C102.815 355.653 102.865 355.521 102.887 355.383C102.91 355.244 102.905 355.103 102.873 354.966C102.841 354.83 102.782 354.701 102.701 354.587L101.723 353.257C101.584 353.068 101.512 352.839 101.518 352.605C101.524 352.371 101.607 352.145 101.755 351.963C102.04 351.615 102.305 351.251 102.549 350.872C102.677 350.677 102.866 350.529 103.087 350.451C103.308 350.374 103.549 350.372 103.771 350.445L105.335 350.953C105.605 351.04 105.898 351.016 106.15 350.888C106.402 350.759 106.592 350.536 106.68 350.267L107.413 348.036C107.457 347.902 107.474 347.762 107.463 347.622C107.453 347.482 107.414 347.346 107.351 347.221C107.287 347.096 107.199 346.985 107.093 346.894C106.986 346.803 106.862 346.734 106.729 346.691ZM92.5519 352.447C90.9667 352.447 89.4172 351.977 88.0991 351.098C86.7811 350.218 85.7539 348.968 85.1472 347.505C84.5406 346.043 84.3819 344.433 84.6911 342.881C85.0004 341.328 85.7637 339.902 86.8846 338.782C88.0055 337.663 89.4336 336.901 90.9883 336.592C92.543 336.283 94.1545 336.442 95.619 337.047C97.0835 337.653 98.3353 338.679 99.2159 339.995C100.097 341.312 100.567 342.859 100.567 344.442C100.567 346.565 99.7223 348.601 98.2192 350.102C96.7161 351.603 94.6776 352.447 92.5519 352.447Z" fill="#0099DB"/>
<path d="M76.8865 358.505L76.2363 358.295C76.1432 358.266 76.0626 358.206 76.0073 358.126C75.952 358.045 75.9251 357.949 75.9308 357.851C75.9308 357.758 75.9308 357.666 75.9308 357.573C75.9308 357.478 75.9308 357.385 75.9308 357.292C75.9255 357.195 75.9526 357.098 76.0078 357.018C76.0631 356.938 76.1434 356.878 76.2363 356.848L76.8865 356.638C76.9986 356.602 77.0916 356.522 77.1452 356.418C77.1989 356.313 77.2086 356.191 77.1725 356.079L76.8694 355.151C76.8516 355.096 76.823 355.044 76.7852 355C76.7474 354.955 76.7012 354.919 76.6491 354.892C76.5971 354.865 76.5403 354.849 76.482 354.845C76.4237 354.84 76.3651 354.847 76.3096 354.866L75.6594 355.078C75.5668 355.108 75.4671 355.106 75.3754 355.074C75.2836 355.042 75.2049 354.981 75.151 354.9C75.0502 354.742 74.94 354.59 74.8211 354.446C74.7597 354.37 74.725 354.276 74.7223 354.179C74.7197 354.081 74.7492 353.985 74.8064 353.906L75.2097 353.355C75.279 353.259 75.3075 353.141 75.2892 353.024C75.2709 352.908 75.2071 352.804 75.1119 352.735L74.3224 352.161C74.2271 352.092 74.1082 352.063 73.9918 352.082C73.8754 352.1 73.771 352.164 73.7016 352.259L73.2983 352.81C73.2418 352.89 73.1603 352.948 73.0669 352.976C72.9735 353.004 72.8734 353 72.7825 352.964C72.6072 352.897 72.4285 352.839 72.2472 352.791C72.1532 352.766 72.0702 352.71 72.0113 352.633C71.9524 352.556 71.9211 352.461 71.9222 352.364V351.683C71.9222 351.565 71.8753 351.452 71.7919 351.368C71.7084 351.285 71.5953 351.238 71.4773 351.238H70.4996C70.3831 351.24 70.2721 351.288 70.1906 351.371C70.1092 351.454 70.0639 351.566 70.0645 351.683V352.364C70.065 352.461 70.0332 352.556 69.9739 352.633C69.9146 352.71 69.8313 352.766 69.737 352.791C69.5557 352.839 69.377 352.897 69.2017 352.964C69.1109 353 69.0108 353.004 68.9173 352.976C68.8239 352.948 68.7425 352.89 68.6859 352.81L68.2826 352.259C68.2485 352.212 68.2054 352.172 68.1558 352.142C68.1062 352.111 68.0511 352.091 67.9937 352.082C67.9363 352.073 67.8776 352.075 67.8211 352.089C67.7645 352.102 67.7112 352.127 67.6642 352.161L66.8723 352.735C66.7771 352.804 66.7133 352.908 66.695 353.024C66.6767 353.141 66.7053 353.259 66.7745 353.355L67.1778 353.906C67.235 353.985 67.2646 354.081 67.2619 354.179C67.2593 354.276 67.2246 354.37 67.1632 354.446C67.045 354.591 66.9348 354.743 66.8332 354.9C66.7796 354.981 66.7009 355.042 66.6091 355.075C66.5172 355.107 66.4174 355.108 66.3248 355.078L65.6746 354.866C65.5624 354.83 65.4405 354.839 65.3356 354.893C65.2306 354.946 65.1513 355.039 65.1149 355.151L64.8142 356.079C64.7779 356.191 64.7874 356.312 64.8405 356.417C64.8936 356.522 64.9861 356.601 65.0978 356.638L65.7479 356.848C65.8413 356.877 65.9221 356.937 65.9778 357.018C66.0336 357.098 66.061 357.194 66.0559 357.292C66.0559 357.385 66.0559 357.478 66.0559 357.573C66.0559 357.668 66.0559 357.758 66.0559 357.851C66.0615 357.949 66.0342 358.046 65.9784 358.126C65.9226 358.207 65.8415 358.266 65.7479 358.295L65.0978 358.505C64.9861 358.542 64.8936 358.622 64.8405 358.726C64.7874 358.831 64.7779 358.953 64.8142 359.064L65.1149 359.994C65.1518 360.106 65.2313 360.198 65.3362 360.251C65.4411 360.304 65.5628 360.314 65.6746 360.278L66.3248 360.068C66.4173 360.037 66.5173 360.038 66.6093 360.071C66.7012 360.103 66.7799 360.164 66.8332 360.246C66.9354 360.402 67.0455 360.553 67.1632 360.697C67.2246 360.773 67.2593 360.867 67.2619 360.965C67.2646 361.062 67.235 361.158 67.1778 361.237L66.7745 361.791C66.7403 361.838 66.7157 361.891 66.7021 361.948C66.6885 362.004 66.6861 362.063 66.6952 362.12C66.7043 362.177 66.7246 362.232 66.755 362.282C66.7854 362.331 66.8252 362.375 66.8723 362.409L67.6642 362.982C67.7112 363.016 67.7645 363.041 67.8211 363.055C67.8776 363.068 67.9363 363.071 67.9937 363.061C68.0511 363.052 68.1062 363.032 68.1558 363.002C68.2054 362.971 68.2485 362.932 68.2826 362.885L68.6859 362.333C68.7427 362.254 68.8242 362.196 68.9175 362.168C69.0109 362.14 69.1108 362.144 69.2017 362.179C69.3766 362.247 69.5554 362.305 69.737 362.352C69.8327 362.378 69.917 362.435 69.9764 362.514C70.0358 362.594 70.0668 362.69 70.0645 362.789V363.473C70.0645 363.59 70.1111 363.702 70.1941 363.785C70.2771 363.868 70.3896 363.915 70.5069 363.915H71.4846C71.6022 363.915 71.715 363.868 71.7983 363.786C71.8817 363.703 71.9288 363.59 71.9295 363.473V362.789C71.9288 362.692 71.9604 362.598 72.0192 362.521C72.078 362.443 72.1608 362.388 72.2546 362.362C72.4362 362.315 72.6149 362.257 72.7899 362.189C72.8808 362.154 72.9807 362.15 73.074 362.178C73.1674 362.206 73.2488 362.264 73.3056 362.343L73.7089 362.894C73.7784 362.989 73.8827 363.053 73.9991 363.071C74.1155 363.09 74.2344 363.061 74.3298 362.992L75.1193 362.418C75.1663 362.384 75.2062 362.341 75.2366 362.292C75.2669 362.242 75.2873 362.187 75.2963 362.13C75.3054 362.072 75.3031 362.014 75.2895 361.957C75.2759 361.901 75.2513 361.848 75.217 361.801L74.8137 361.247C74.7565 361.168 74.727 361.072 74.7296 360.974C74.7323 360.877 74.767 360.783 74.8284 360.707C74.9468 360.563 75.057 360.412 75.1584 360.256C75.2116 360.174 75.2904 360.113 75.3823 360.08C75.4742 360.048 75.5742 360.047 75.6668 360.077L76.317 360.287C76.4288 360.324 76.5504 360.314 76.6553 360.261C76.7602 360.208 76.8398 360.116 76.8767 360.004L77.1798 359.074C77.1991 359.018 77.2067 358.958 77.2023 358.898C77.1979 358.839 77.1815 358.781 77.1542 358.727C77.1268 358.674 77.089 358.627 77.043 358.589C76.997 358.551 76.9438 358.523 76.8865 358.505ZM70.9884 360.9C70.3289 360.9 69.6843 360.705 69.1359 360.339C68.5876 359.973 68.1603 359.453 67.908 358.844C67.6557 358.235 67.5899 357.566 67.7187 356.92C67.8475 356.274 68.1653 355.681 68.6318 355.215C69.0983 354.75 69.6926 354.433 70.3395 354.304C70.9864 354.176 71.6568 354.243 72.266 354.495C72.8752 354.747 73.3957 355.174 73.7617 355.722C74.1278 356.27 74.3229 356.914 74.3224 357.573C74.3224 358.01 74.2362 358.443 74.0686 358.847C73.901 359.251 73.6554 359.617 73.3458 359.926C73.0362 360.235 72.6686 360.48 72.2641 360.647C71.8596 360.815 71.4262 360.9 70.9884 360.9Z" fill="#0099DB"/>
<path d="M60.5442 352.781L60.3388 352.376C60.3094 352.318 60.2996 352.252 60.3111 352.188C60.3226 352.124 60.3546 352.066 60.4024 352.022C60.4488 351.98 60.4953 351.939 60.5393 351.895C60.5833 351.851 60.6248 351.805 60.6664 351.758C60.71 351.71 60.7685 351.677 60.8327 351.666C60.8969 351.654 60.9631 351.664 61.0208 351.695L61.4265 351.9C61.4612 351.918 61.499 351.928 61.5378 351.931C61.5766 351.934 61.6156 351.93 61.6526 351.918C61.6897 351.906 61.7239 351.887 61.7535 351.861C61.7831 351.836 61.8073 351.805 61.825 351.77L62.1183 351.192C62.1542 351.122 62.161 351.041 62.1372 350.967C62.1134 350.892 62.0608 350.83 61.9912 350.794L61.5854 350.584C61.5276 350.555 61.481 350.508 61.4527 350.449C61.4245 350.391 61.4161 350.325 61.429 350.262C61.4559 350.139 61.4754 350.016 61.4876 349.891C61.4943 349.827 61.5219 349.767 61.566 349.72C61.6102 349.673 61.6685 349.642 61.7321 349.632L62.1818 349.561C62.259 349.548 62.3279 349.505 62.3737 349.442C62.4194 349.378 62.4383 349.299 62.4262 349.222L62.3236 348.582C62.3176 348.544 62.3042 348.508 62.284 348.475C62.2638 348.442 62.2372 348.413 62.2059 348.39C62.1745 348.367 62.1389 348.351 62.1013 348.342C62.0636 348.333 62.0245 348.332 61.9863 348.338L61.5365 348.409C61.4724 348.419 61.4067 348.408 61.3497 348.377C61.2926 348.346 61.2474 348.298 61.2212 348.238C61.17 348.125 61.1129 348.014 61.0501 347.906C61.0178 347.85 61.0051 347.784 61.014 347.72C61.0228 347.655 61.0527 347.596 61.099 347.55L61.4192 347.23C61.4469 347.203 61.4689 347.17 61.4839 347.134C61.499 347.099 61.5067 347.06 61.5067 347.021C61.5067 346.982 61.499 346.944 61.4839 346.908C61.4689 346.872 61.4469 346.84 61.4192 346.813L60.9597 346.351C60.9042 346.296 60.8291 346.265 60.7507 346.265C60.6723 346.265 60.5972 346.296 60.5417 346.351L60.224 346.678C60.1785 346.724 60.1192 346.754 60.0551 346.763C59.991 346.772 59.9257 346.759 59.8695 346.727C59.7615 346.663 59.6497 346.606 59.5347 346.556C59.4757 346.53 59.4272 346.484 59.3967 346.427C59.3662 346.371 59.3554 346.305 59.366 346.241L59.4369 345.792C59.4489 345.715 59.4299 345.637 59.3841 345.574C59.3384 345.51 59.2695 345.468 59.1925 345.455L58.5496 345.353C58.5114 345.347 58.4723 345.348 58.4346 345.357C58.397 345.366 58.3614 345.382 58.33 345.405C58.2987 345.427 58.2721 345.456 58.2519 345.489C58.2317 345.522 58.2183 345.559 58.2123 345.597L58.1414 346.049C58.1309 346.112 58.0996 346.171 58.0523 346.215C58.005 346.259 57.9444 346.287 57.8799 346.293C57.7558 346.305 57.6326 346.325 57.5108 346.351C57.4464 346.364 57.3795 346.356 57.3206 346.326C57.2617 346.297 57.2143 346.249 57.1857 346.19L56.978 345.785C56.9424 345.716 56.8808 345.663 56.8067 345.639C56.7325 345.615 56.6517 345.621 56.582 345.656L56.0003 345.951C55.9306 345.987 55.878 346.049 55.8542 346.124C55.8304 346.198 55.8372 346.279 55.8732 346.349L56.0785 346.754C56.1081 346.812 56.1177 346.878 56.1057 346.942C56.0938 347.006 56.061 347.065 56.0125 347.108C55.9685 347.147 55.922 347.191 55.878 347.235C55.834 347.279 55.79 347.323 55.7509 347.369C55.7074 347.418 55.649 347.45 55.5849 347.462C55.5209 347.474 55.4546 347.465 55.3965 347.435L54.9908 347.228C54.9207 347.193 54.8395 347.186 54.765 347.211C54.6904 347.235 54.6284 347.287 54.5924 347.357L54.2966 347.936C54.2615 348.006 54.2554 348.087 54.2796 348.161C54.3039 348.235 54.3565 348.297 54.4261 348.333L54.8319 348.541C54.8897 348.57 54.9363 348.617 54.9646 348.676C54.9928 348.734 55.0012 348.8 54.9883 348.863C54.9614 348.985 54.9419 349.108 54.9297 349.232C54.9231 349.296 54.8957 349.356 54.8515 349.403C54.8074 349.451 54.749 349.482 54.6852 349.493L54.2355 349.564C54.1585 349.576 54.0896 349.619 54.0438 349.682C53.998 349.745 53.9791 349.824 53.9911 349.901L54.0937 350.543C54.1063 350.619 54.1489 350.688 54.212 350.734C54.2752 350.78 54.3539 350.799 54.431 350.787L54.8808 350.716C54.9446 350.705 55.0103 350.715 55.0674 350.746C55.1245 350.777 55.1698 350.825 55.1961 350.884C55.2472 350.999 55.3044 351.11 55.3672 351.219C55.3993 351.275 55.4119 351.34 55.403 351.404C55.3942 351.468 55.3644 351.527 55.3183 351.573L54.9981 351.895C54.9704 351.922 54.9484 351.955 54.9334 351.991C54.9183 352.026 54.9106 352.065 54.9106 352.104C54.9106 352.142 54.9183 352.181 54.9334 352.217C54.9484 352.253 54.9704 352.285 54.9981 352.312L55.4527 352.781C55.5082 352.836 55.5834 352.867 55.6617 352.867C55.7401 352.867 55.8153 352.836 55.8707 352.781L56.1934 352.461C56.2388 352.415 56.2981 352.385 56.3622 352.377C56.4263 352.368 56.4916 352.38 56.5478 352.412C56.6555 352.475 56.7665 352.532 56.8802 352.583C56.9396 352.609 56.9886 352.655 57.0196 352.712C57.0505 352.769 57.0617 352.834 57.0513 352.898L56.9804 353.347C56.9684 353.424 56.9874 353.503 57.0332 353.566C57.0789 353.629 57.1478 353.672 57.2248 353.684L57.8677 353.787C57.9448 353.799 58.0235 353.78 58.0867 353.734C58.1498 353.688 58.1924 353.62 58.205 353.543L58.2759 353.093C58.2864 353.03 58.3177 352.971 58.365 352.927C58.4123 352.883 58.4729 352.856 58.5374 352.849C58.6615 352.837 58.7847 352.817 58.9065 352.791C58.9697 352.777 59.0356 352.785 59.094 352.813C59.1523 352.841 59.1998 352.887 59.2291 352.945L59.4369 353.35C59.454 353.385 59.4779 353.416 59.5072 353.441C59.5365 353.467 59.5707 353.486 59.6076 353.498C59.6445 353.51 59.6834 353.515 59.7221 353.511C59.7608 353.508 59.7985 353.497 59.8329 353.479L60.4122 353.184C60.4482 353.167 60.4804 353.143 60.5068 353.113C60.5331 353.084 60.5531 353.049 60.5655 353.011C60.5779 352.973 60.5824 352.933 60.5787 352.894C60.575 352.854 60.5633 352.816 60.5442 352.781ZM56.6333 351.133C56.3229 350.823 56.1115 350.428 56.0258 349.998C55.9402 349.568 55.9841 349.123 56.1521 348.718C56.32 348.313 56.6045 347.967 56.9695 347.723C57.3345 347.479 57.7636 347.349 58.2025 347.349C58.6415 347.349 59.0706 347.479 59.4356 347.723C59.8006 347.967 60.0851 348.313 60.253 348.718C60.421 349.123 60.4649 349.568 60.3793 349.998C60.2936 350.428 60.0822 350.823 59.7718 351.133C59.3561 351.547 58.7932 351.78 58.206 351.781C57.6188 351.782 57.0552 351.551 56.6382 351.138L56.6333 351.133Z" fill="#0099DB"/>
<path d="M96.1697 348.069C98.1752 346.066 98.1752 342.819 96.1697 340.816C94.1642 338.813 90.9127 338.813 88.9072 340.816C86.9017 342.819 86.9017 346.066 88.9072 348.069C90.9127 350.072 94.1642 350.072 96.1697 348.069Z" fill="#0099DB"/>
<g style="mix-blend-mode:overlay" opacity="0.23">
<path d="M92.5396 354.439C98.0675 354.439 102.549 349.963 102.549 344.442C102.549 338.922 98.0675 334.446 92.5396 334.446C87.0116 334.446 82.5303 338.922 82.5303 344.442C82.5303 349.963 87.0116 354.439 92.5396 354.439Z" stroke="white" stroke-width="8.55" stroke-miterlimit="10"/>
</g>
</g>
<path d="M163.181 375.571L159.305 371.797C157.185 373.333 154.799 374.101 152.149 374.101H146.932C144.514 374.101 142.394 373.578 140.572 372.532C138.75 371.486 137.342 370.015 136.348 368.12C135.354 366.224 134.857 364.018 134.857 361.502V351.599C134.857 349.082 135.371 346.876 136.398 344.981C137.424 343.085 138.866 341.615 140.721 340.569C142.576 339.523 144.696 339 147.081 339H152.348C154.766 339 156.886 339.523 158.708 340.569C160.563 341.615 161.988 343.085 162.982 344.981C164.009 346.876 164.522 349.082 164.522 351.599V361.306C164.522 364.051 163.76 366.518 162.236 368.708L166.112 372.483L163.181 375.571ZM152.05 369.934C153.541 369.934 154.899 369.525 156.125 368.708L151.205 363.953L154.187 360.864L158.907 365.473C159.503 364.231 159.802 362.842 159.802 361.306V351.697C159.802 349.115 159.106 347.056 157.715 345.52C156.356 343.951 154.551 343.167 152.298 343.167H147.18C144.928 343.167 143.089 343.951 141.665 345.52C140.273 347.089 139.578 349.148 139.578 351.697V361.404C139.578 363.986 140.257 366.061 141.615 367.63C142.973 369.166 144.762 369.934 146.982 369.934H152.05Z" fill="white"/>
<path d="M181.863 374.101C179.544 374.101 177.49 373.578 175.702 372.532C173.913 371.486 172.521 370.015 171.528 368.12C170.567 366.192 170.087 363.969 170.087 361.453V351.648C170.087 349.131 170.584 346.925 171.577 345.03C172.571 343.102 173.962 341.615 175.751 340.569C177.573 339.523 179.677 339 182.062 339H187.329C189.582 339 191.569 339.49 193.292 340.471C195.048 341.418 196.389 342.758 197.317 344.491C198.277 346.223 198.758 348.216 198.758 350.471H194.137C194.137 348.282 193.507 346.517 192.248 345.177C191.023 343.837 189.383 343.167 187.329 343.167H182.062C179.909 343.167 178.153 343.951 176.795 345.52C175.47 347.089 174.807 349.164 174.807 351.746V361.355C174.807 363.937 175.453 366.012 176.745 367.581C178.037 369.149 179.743 369.934 181.863 369.934H187.23C189.35 369.934 191.039 369.198 192.298 367.728C193.59 366.224 194.236 364.263 194.236 361.845H198.857C198.857 364.263 198.377 366.404 197.416 368.267C196.455 370.13 195.097 371.568 193.342 372.581C191.586 373.594 189.549 374.101 187.23 374.101H181.863Z" fill="white"/>
<defs>
<clipPath id="clip0_1_1603">
<rect width="67.4595" height="64" fill="white" transform="translate(40 323)"/>
</clipPath>
</defs>
</svg>
