<svg width="427" height="427" viewBox="0 0 427 427" fill="none" xmlns="http://www.w3.org/2000/svg">
<rect width="427" height="427" fill="#0D0F35"/>
<g opacity="0.1">
<path d="M214.002 243.121C230.487 243.121 243.852 229.757 243.852 213.272C243.852 196.786 230.487 183.422 214.002 183.422C197.516 183.422 184.152 196.786 184.152 213.272C184.152 229.757 197.516 243.121 214.002 243.121Z" fill="white"/>
<path fill-rule="evenodd" clip-rule="evenodd" d="M214.003 152.581C254.08 152.581 291.31 158.332 319.382 167.996C353.205 179.64 374 197.29 374 213.272C374 229.926 351.961 248.676 315.64 260.71C288.181 269.808 252.046 274.557 214.003 274.557C174.998 274.557 138.062 270.1 110.293 260.61C75.1607 248.602 54 229.609 54 213.272C54 197.42 73.8553 179.906 107.202 168.28C135.379 158.456 173.529 152.581 213.997 152.581H214.003Z" stroke="white" stroke-width="1.66272"/>
<path fill-rule="evenodd" clip-rule="evenodd" d="M161.169 183.102C181.191 148.384 204.771 119.005 227.167 99.5153C254.151 76.0329 279.829 66.8365 293.673 74.8197C308.101 83.1396 313.334 111.599 305.613 149.074C299.782 177.407 285.839 211.08 266.833 244.037C247.347 277.826 225.034 307.595 202.944 326.904C174.99 351.34 147.965 360.183 133.813 352.021C120.08 344.107 114.829 318.153 121.417 283.457C126.983 254.141 140.952 218.158 161.163 183.101L161.169 183.102Z" stroke="white" stroke-width="1.66272"/>
<path fill-rule="evenodd" clip-rule="evenodd" d="M161.219 244.125C141.141 209.447 127.471 174.339 121.765 145.203C114.896 110.098 119.752 83.2568 133.584 75.2505C147.997 66.9061 175.267 76.5857 203.878 101.99C225.51 121.197 247.722 150.088 266.783 183.014C286.326 216.77 300.972 250.969 306.67 279.751C313.88 316.173 308.044 344.002 293.905 352.186C280.186 360.129 255.081 351.72 228.312 328.684C205.694 309.221 181.496 279.148 161.219 244.125V244.125Z" stroke="white" stroke-width="1.66272"/>
</g>
<path d="M77.3059 360.849C81.1496 360.849 84.2656 357.737 84.2656 353.898C84.2656 350.059 81.1496 346.947 77.3059 346.947C73.4622 346.947 70.3462 350.059 70.3462 353.898C70.3462 357.737 73.4622 360.849 77.3059 360.849Z" fill="#00D8FF"/>
<path fill-rule="evenodd" clip-rule="evenodd" d="M77.306 339.765C86.6504 339.765 95.331 341.104 101.876 343.355C109.762 346.066 114.611 350.177 114.611 353.898C114.611 357.777 109.472 362.143 101.004 364.945C94.6013 367.064 86.1762 368.17 77.306 368.17C68.2117 368.17 59.5999 367.132 53.1253 364.922C44.9338 362.126 40 357.703 40 353.898C40 350.207 44.6294 346.128 52.4046 343.421C58.9742 341.133 67.8692 339.765 77.3048 339.765H77.306Z" stroke="#00D8FF" stroke-width="1.66272"/>
<path fill-rule="evenodd" clip-rule="evenodd" d="M64.9875 346.872C69.6558 338.788 75.1537 331.946 80.3755 327.408C86.667 321.939 92.6541 319.798 95.882 321.657C99.2459 323.594 100.466 330.222 98.6659 338.948C97.3063 345.546 94.0553 353.388 89.624 361.063C85.0806 368.931 79.8782 375.864 74.7275 380.36C68.21 386.05 61.9088 388.11 58.6091 386.209C55.4072 384.366 54.1828 378.322 55.7188 370.242C57.0166 363.416 60.2736 355.036 64.986 346.872L64.9875 346.872Z" stroke="#00D8FF" stroke-width="1.66272"/>
<path fill-rule="evenodd" clip-rule="evenodd" d="M64.9992 361.083C60.3177 353.008 57.1304 344.832 55.8 338.047C54.1985 329.872 55.3308 323.621 58.5557 321.757C61.9163 319.814 68.2745 322.068 74.9454 327.984C79.9891 332.457 85.1681 339.185 89.6124 346.852C94.1688 354.713 97.5838 362.677 98.9123 369.379C100.593 377.861 99.2328 384.342 95.9361 386.248C92.7374 388.097 86.884 386.139 80.6425 380.774C75.3689 376.242 69.7269 369.239 64.9992 361.083V361.083Z" stroke="#00D8FF" stroke-width="1.66272"/>
<path fill-rule="evenodd" clip-rule="evenodd" d="M154.56 371.658L146.03 358.786C150.341 358.406 154.226 355.286 154.226 349.586C154.226 343.786 150.105 340.074 144.323 340.074H131.628V371.634H135.561V359.094H141.862L149.916 371.634L154.56 371.658ZM143.853 355.664H135.563V343.598H143.853C147.597 343.598 150.155 346.058 150.155 349.608C150.155 353.158 147.595 355.668 143.853 355.668V355.664ZM169.2 372.224C172.945 372.224 176.022 370.994 178.297 368.724L176.591 366.404C174.789 368.25 172.138 369.29 169.532 369.29C164.606 369.29 161.573 365.694 161.288 361.39H179.811V360.49C179.811 353.63 175.736 348.234 168.818 348.234C162.279 348.234 157.544 353.582 157.544 360.206C157.544 367.352 162.424 372.206 169.198 372.206L169.2 372.224ZM176.309 358.784H161.29C161.481 355.284 163.893 351.164 168.775 351.164C173.988 351.164 176.261 355.376 176.309 358.784ZM203.41 371.656V355.946C203.41 350.41 199.385 348.232 194.551 348.232C190.807 348.232 187.871 349.462 185.408 352.018L187.066 354.478C189.102 352.302 191.331 351.308 194.079 351.308C197.395 351.308 199.86 353.058 199.86 356.134V360.25C198.011 358.12 195.406 357.126 192.278 357.126C188.394 357.126 184.269 359.54 184.269 364.65C184.269 369.618 188.39 372.222 192.278 372.222C195.358 372.222 197.965 371.134 199.86 369.052V371.652L203.41 371.656ZM193.558 369.668C190.242 369.668 187.919 367.588 187.919 364.7C187.919 361.766 190.242 359.684 193.558 359.684C196.069 359.684 198.484 360.63 199.86 362.524V366.83C198.486 368.722 196.069 369.668 193.558 369.668ZM220.591 372.224C224.76 372.224 227.223 370.52 228.978 368.25L226.609 366.074C225.093 368.108 223.15 369.054 220.801 369.054C215.921 369.054 212.892 365.268 212.892 360.206C212.892 355.144 215.923 351.406 220.801 351.406C223.17 351.406 225.113 352.306 226.609 354.386L228.978 352.21C227.225 349.938 224.76 348.236 220.591 348.236C213.769 348.236 209.173 353.442 209.173 360.208C209.173 367.022 213.769 372.208 220.591 372.208V372.224ZM239.735 372.224C241.817 372.224 243.099 371.608 244 370.758L242.959 368.108C242.484 368.628 241.557 369.054 240.542 369.054C238.98 369.054 238.219 367.824 238.219 366.12V351.924H242.865V348.802H238.219V342.556H234.665V348.802H230.874V351.926H234.665V366.88C234.665 370.288 236.371 372.228 239.735 372.228V372.224Z" fill="#00D8FF"/>
</svg>
