<svg width="427" height="427" viewBox="0 0 427 427" fill="none" xmlns="http://www.w3.org/2000/svg">
<rect width="427" height="427" fill="#0D0F35"/>
<g clip-path="url(#clip0_1_1642)">
<path d="M123.945 352.8V331.54H132.855V353.113C132.855 356.708 134.731 359.053 139.108 359.053C143.172 359.053 145.205 356.552 145.205 352.956V331.54H154.115V352.8C154.115 361.085 149.113 366.087 139.108 366.087C128.947 366.244 123.945 361.241 123.945 352.8ZM158.179 339.669H166.152V343.264H166.308C168.184 340.451 170.685 339.044 174.28 339.044C179.908 339.044 183.191 343.108 183.191 348.892V365.618H174.906V350.455C174.906 347.798 173.499 345.922 170.841 345.922C168.184 345.922 166.308 348.267 166.308 351.393V365.618H158.023V339.669H158.179ZM187.411 329.508H195.697V336.23H187.411V329.508ZM187.411 339.669H195.697V365.462H187.411V339.669ZM202.106 358.74V346.391H198.667V339.669H202.106V331.54H210.078V339.669H214.768V346.391H210.078V357.021C210.078 359.053 211.172 359.522 212.892 359.522H214.768V365.462C213.986 365.618 212.423 365.931 210.234 365.931C205.545 365.931 202.106 364.368 202.106 358.74ZM219.926 367.651H222.74C225.085 367.651 226.179 366.713 226.179 364.993C226.179 363.899 225.71 362.336 224.616 359.678L216.956 339.825H225.554L228.993 350.768C229.775 353.269 230.556 356.708 230.556 356.708H230.713C230.713 356.708 231.494 353.269 232.276 350.768L235.715 339.825H244L235.09 365.931C233.057 372.028 230.556 374.06 225.398 374.06H220.083L219.926 367.651Z" fill="white"/>
<path d="M106.437 364.524V329.508L76.1103 312V325.444L87.9908 332.322C88.4598 332.634 88.4598 333.26 87.9908 333.416L73.9218 341.545C73.4529 341.857 72.9839 341.701 72.6713 341.545L58.6023 333.416C58.1333 333.26 58.1333 332.478 58.6023 332.322L70.4828 325.444V312L40 329.508V364.524L51.5678 357.802V344.046C51.5678 343.577 52.1931 343.264 52.5057 343.421L66.5747 351.549C67.0437 351.862 67.2 352.175 67.2 352.644V368.901C67.2 369.37 66.5747 369.683 66.2621 369.526L54.3816 362.648L42.8138 369.37L73.1402 387.034L103.467 369.526L91.8989 362.805L80.0184 369.683C79.5494 369.995 79.0805 369.683 79.0805 369.057V352.8C79.0805 352.331 79.3931 351.862 79.7057 351.706L93.7747 343.577C94.2437 343.264 94.7126 343.577 94.7126 344.202V357.959L106.437 364.524Z" fill="#4C4C4C"/>
<path d="M73.1401 387.034L103.467 369.526L91.8988 362.805L80.0183 369.683C79.5493 369.995 79.0804 369.683 79.0804 369.057V352.8C79.0804 352.331 79.393 351.862 79.7057 351.706L93.7746 343.577C94.2436 343.264 94.7125 343.577 94.7125 344.202V357.959L106.28 364.68V329.508L73.1401 348.736V387.034Z" fill="white"/>
<path d="M76.1103 312V325.444L87.9908 332.322C88.4598 332.634 88.4598 333.26 87.9908 333.416L73.9218 341.545C73.4529 341.857 72.9839 341.701 72.6713 341.545L58.6023 333.416C58.1333 333.26 58.1333 332.478 58.6023 332.322L70.4828 325.444V312L40 329.508L73.1402 348.736L106.28 329.508L76.1103 312Z" fill="#808080"/>
<path d="M66.4184 369.683L54.5379 362.805L42.9701 369.526L73.2965 387.034V348.736L40 329.508V364.524L51.5678 357.802V344.046C51.5678 343.577 52.1931 343.264 52.5057 343.421L66.5747 351.549C67.0437 351.862 67.2 352.175 67.2 352.644V368.901C67.3563 369.526 66.8874 369.995 66.4184 369.683Z" fill="#4C4C4C"/>
</g>
<g opacity="0.1">
<path d="M213.5 364L334.75 294L288.5 267.125L241 294.625C239.125 295.875 237.25 294.625 237.25 292.125V227.125C237.25 225.25 238.5 223.375 239.75 222.75L296 190.25C297.875 189 299.75 190.25 299.75 192.75V247.75L346 274.625V134L213.5 210.875V364Z" fill="white"/>
<path d="M225.375 64V117.75L272.875 145.25C274.75 146.5 274.75 149 272.875 149.625L216.625 182.125C214.75 183.375 212.875 182.75 211.625 182.125L155.375 149.625C153.5 149 153.5 145.875 155.375 145.25L202.875 117.75V64L81 134L213.5 210.875L346 134L225.375 64Z" fill="#808080"/>
<path d="M186.625 294.625L139.125 267.125L92.875 294L214.125 364V210.875L81 134V274L127.25 247.125V192.125C127.25 190.25 129.75 189 131 189.625L187.25 222.125C189.125 223.375 189.75 224.625 189.75 226.5V291.5C190.375 294 188.5 295.875 186.625 294.625Z" fill="#4C4C4C"/>
</g>
<defs>
<clipPath id="clip0_1_1642">
<rect width="204" height="75.0345" fill="white" transform="translate(40 312)"/>
</clipPath>
</defs>
</svg>
