<svg width="38" height="26" viewBox="0 0 38 26" fill="none" xmlns="http://www.w3.org/2000/svg">
<path d="M15.8039 0L9.68628 11.0118H9.8902C11.7255 11.0118 13.2889 11.6915 14.5804 13.051C15.9399 14.3425 16.6196 15.9399 16.6196 17.8431C16.6196 20.2222 15.8039 22.1935 14.1726 23.7569C12.5412 25.2523 10.6039 26 8.36078 26C5.9817 26 3.97647 25.2523 2.3451 23.7569C0.781699 22.1935 0 20.2222 0 17.8431C0 16.5516 0.169934 15.3281 0.509804 14.1725C0.917647 12.949 1.52941 11.5556 2.3451 9.99215L7.64706 0H15.8039ZM36.502 0L30.3843 11.0118H30.5882C32.4235 11.0118 33.9869 11.6915 35.2784 13.051C36.6379 14.3425 37.3176 15.9399 37.3176 17.8431C37.3176 20.2222 36.502 22.1935 34.8706 23.7569C33.2392 25.2523 31.302 26 29.0588 26C26.6797 26 24.6745 25.2523 23.0431 23.7569C21.4797 22.1935 20.698 20.2222 20.698 17.8431C20.698 16.5516 20.868 15.3281 21.2078 14.1725C21.6157 12.949 22.2275 11.5556 23.0431 9.99215L28.3451 0H36.502Z" fill="#0D0F35"/>
</svg>
