<svg width="179" height="32" viewBox="0 0 179 32" fill="none" xmlns="http://www.w3.org/2000/svg">
<g clip-path="url(#clip0_0_3)">
<mask id="mask0_0_3" style="mask-type:luminance" maskUnits="userSpaceOnUse" x="0" y="0" width="179" height="32">
<path d="M178.709 0H0V32H178.709V0Z" fill="white"/>
</mask>
<g mask="url(#mask0_0_3)">
<mask id="mask1_0_3" style="mask-type:luminance" maskUnits="userSpaceOnUse" x="0" y="0" width="179" height="33">
<path d="M178.709 0H0V32.0075H178.709V0Z" fill="white"/>
</mask>
<g mask="url(#mask1_0_3)">
<mask id="mask2_0_3" style="mask-type:luminance" maskUnits="userSpaceOnUse" x="0" y="0" width="179" height="32">
<path d="M178.106 0.666824H0V31.3407H178.106V0.666824Z" fill="white"/>
</mask>
<g mask="url(#mask2_0_3)">
<path d="M0.111969 24.8469L0.984286 23.3359L6.41345 13.113L6.99127 11.9686C7.15932 11.6325 7.39302 11.1507 7.69553 10.52C8.92638 10.5345 9.8259 10.5409 10.3925 10.5409C11.3784 10.5409 12.2924 10.5345 13.1311 10.52L14.6629 14.896L17.7776 23.3135L18.3858 24.8453C17.1742 24.8324 16.4379 24.8243 16.1802 24.8243C15.5913 24.8243 14.7269 24.8309 13.5856 24.8453C13.2783 23.6913 12.835 22.3339 12.2556 20.7734H6.97045C6.36223 22.0042 5.73322 23.3615 5.08337 24.8453C3.7805 24.8324 2.98181 24.8243 2.68731 24.8243C2.15431 24.8243 1.2964 24.8309 0.11357 24.8453M8.23972 17.7195H11.5001C10.6902 15.2545 10.2468 13.8957 10.1701 13.6444C9.70905 14.6704 9.31691 15.5122 8.99519 16.1686L8.23972 17.7195Z" fill="#009CA8"/>
<path d="M19.5303 24.8468L19.7384 22.1593L20.0088 16.9126L20.1242 13.1978C20.1305 12.7992 20.1353 12.4006 20.1353 12.0005C20.1353 11.6996 20.1322 11.2066 20.1242 10.52C21.0476 10.5408 21.7903 10.552 22.3506 10.552C22.9107 10.552 23.6278 10.536 24.5658 10.5056C25.5036 10.4736 26.2976 10.4592 26.949 10.4592C27.8869 10.4592 28.5816 10.5184 29.0329 10.6368C29.4844 10.7569 29.8925 10.9425 30.2558 11.1986C30.6192 11.4547 30.9201 11.7524 31.1585 12.0966C31.397 12.4391 31.5747 12.8296 31.6948 13.2666C31.8132 13.7036 31.8724 14.1501 31.8724 14.6048C31.8724 15.5426 31.6452 16.3989 31.1905 17.1752C30.736 17.9516 30.0957 18.5325 29.2698 18.9167C28.444 19.3024 27.5173 19.4944 26.4881 19.4944C26.1103 19.4944 25.6734 19.4528 25.1755 19.368C25.1195 19.0463 25.0139 18.5677 24.8602 17.9306C24.7066 17.2937 24.5802 16.8214 24.4825 16.5141C24.7898 16.5767 25.1115 16.6086 25.4477 16.6086C26.1551 16.6086 26.6817 16.4389 27.0274 16.0997C27.3732 15.7604 27.5477 15.3457 27.5477 14.8559C27.5477 14.6174 27.5093 14.4062 27.4323 14.2205C27.3556 14.0349 27.2323 13.8827 27.0658 13.7643C26.8978 13.6459 26.7121 13.5691 26.5089 13.5338C26.3055 13.4986 26.0751 13.481 25.8158 13.481C25.5565 13.481 25.3019 13.4874 25.0283 13.5018L24.1463 13.5643C24.0567 14.9152 23.9863 16.4149 23.9383 18.0666C23.8487 21.0757 23.8039 22.8814 23.8039 23.4815V24.8452L21.7135 24.8244C21.419 24.8244 20.6907 24.8308 19.5287 24.8452" fill="#009CA8"/>
<path d="M33.2473 24.8468L33.4553 22.1593L33.7258 16.9126L33.8411 13.1978C33.8474 12.7992 33.8523 12.4006 33.8523 12.0005C33.8523 11.6996 33.8491 11.2066 33.8411 10.52C34.7646 10.5408 35.5073 10.552 36.0674 10.552C36.6277 10.552 37.3448 10.536 38.2827 10.5056C39.2207 10.4736 40.0145 10.4592 40.6659 10.4592C41.6039 10.4592 42.2986 10.5184 42.7499 10.6368C43.2013 10.7569 43.6094 10.9425 43.9727 11.1986C44.3361 11.4547 44.637 11.7524 44.8755 12.0966C45.1139 12.4391 45.2917 12.8296 45.4117 13.2666C45.5301 13.7036 45.5892 14.1501 45.5892 14.6048C45.5892 15.5426 45.362 16.3989 44.9076 17.1752C44.453 17.9516 43.8127 18.5325 42.9867 18.9167C42.161 19.3024 41.2342 19.4944 40.2049 19.4944C39.8272 19.4944 39.3903 19.4528 38.8925 19.368C38.8364 19.0463 38.7308 18.5677 38.5772 17.9306C38.4235 17.2937 38.2971 16.8214 38.1995 16.5141C38.5068 16.5767 38.8284 16.6086 39.1647 16.6086C39.8706 16.6086 40.3987 16.4389 40.7444 16.0997C41.0902 15.7604 41.2646 15.3457 41.2646 14.8559C41.2646 14.6174 41.2262 14.4062 41.1493 14.2205C41.0726 14.0349 40.9492 13.8827 40.7828 13.7643C40.6147 13.6459 40.4291 13.5691 40.2258 13.5338C40.0225 13.4986 39.792 13.481 39.5327 13.481C39.2735 13.481 39.0189 13.4874 38.7452 13.5018L37.8633 13.5643C37.7737 14.9152 37.7032 16.4149 37.6552 18.0666C37.5656 21.0757 37.5208 22.8814 37.5208 23.4815V24.8452L35.4304 24.8244C35.136 24.8244 34.4077 24.8308 33.2457 24.8452" fill="#009CA8"/>
<path d="M46.7962 24.6275C46.7049 23.1374 46.5993 21.945 46.4809 21.0485C47.2651 21.3991 47.9646 21.6408 48.5777 21.7784C49.1906 21.9145 49.7285 21.9833 50.191 21.9833C50.8008 21.9833 51.2858 21.8937 51.6476 21.716C52.0093 21.5368 52.1886 21.2727 52.1886 20.9237C52.1886 20.8053 52.171 20.6916 52.1357 20.5828C52.1005 20.474 52.0349 20.3524 51.9356 20.2146C51.838 20.0786 51.6972 19.9297 51.5146 19.7681L49.538 18.0474C49.0754 17.6553 48.7521 17.3721 48.5697 17.1976C48.1984 16.8406 47.9086 16.5093 47.7021 16.2005C47.4957 15.8931 47.3436 15.5794 47.2491 15.2609C47.1547 14.9424 47.1068 14.6048 47.1068 14.2477C47.1068 13.822 47.1819 13.4026 47.3324 12.9945C47.4829 12.5847 47.7085 12.2021 48.0094 11.8452C48.3103 11.4883 48.7089 11.181 49.2067 10.9218C49.7029 10.6624 50.2343 10.4863 50.8024 10.3919C51.369 10.2975 51.9532 10.2495 52.5551 10.2495C53.7379 10.2495 55.0248 10.3855 56.4174 10.6592C56.438 11.141 56.462 11.5843 56.491 11.9861C56.5198 12.3879 56.5853 13.0937 56.691 14.1005C56.0475 13.8412 55.4601 13.6619 54.9271 13.5594C54.3957 13.4586 53.9364 13.4074 53.5523 13.4074C53.0064 13.4074 52.5535 13.5098 52.1933 13.7115C51.8332 13.9149 51.6524 14.1661 51.6524 14.467C51.6524 14.6062 51.6812 14.7439 51.7356 14.8768C51.7916 15.0096 51.8972 15.1649 52.0509 15.3441C52.2045 15.5218 52.4079 15.7186 52.659 15.9315C52.9104 16.1444 53.3057 16.4613 53.8452 16.8808L54.6007 17.4793C54.8246 17.6617 55.0664 17.8811 55.324 18.1403C55.5834 18.3996 55.8075 18.6541 55.9963 18.9071C56.1852 19.1582 56.3308 19.3904 56.4316 19.6001C56.5325 19.8097 56.6078 20.021 56.6574 20.2355C56.7053 20.4484 56.731 20.6772 56.731 20.9237C56.731 21.5528 56.5805 22.1531 56.2796 22.7228C55.9787 23.2927 55.5513 23.7616 54.9992 24.1297C54.447 24.4963 53.8388 24.7539 53.1777 24.9012C52.5167 25.0484 51.8188 25.122 51.0841 25.122C49.9509 25.122 48.52 24.9572 46.7914 24.6291" fill="#009CA8"/>
<path d="M72.9098 21.3527C72.8264 21.764 72.724 22.3387 72.6055 23.0734C72.4855 23.8096 72.4055 24.3793 72.3639 24.7843C70.8673 25.0085 69.5292 25.1204 68.3544 25.1204C67.1796 25.1204 66.1664 24.978 65.1901 24.6947C64.2137 24.4115 63.319 23.9456 62.5027 23.2991C61.6881 22.6524 61.1054 21.8905 60.7548 21.0167C60.4043 20.1427 60.2299 19.1632 60.2299 18.0778C60.2299 16.8118 60.4667 15.6722 60.9388 14.6622C61.4111 13.6508 62.0898 12.8088 62.9749 12.1334C63.86 11.4579 64.8299 10.9762 65.888 10.6849C66.9444 10.3951 68.0359 10.2495 69.1627 10.2495C70.1982 10.2495 71.4788 10.3823 73.004 10.6481L73.0248 11.53C73.0393 11.9157 73.0601 12.3382 73.0873 12.7992L73.1609 13.9965C72.3415 13.8011 71.6788 13.6667 71.1715 13.5979C70.664 13.5274 70.1935 13.4938 69.7597 13.4938C68.8153 13.4938 67.9654 13.6827 67.21 14.0605C66.4545 14.4382 65.859 14.9872 65.4253 15.7074C64.9916 16.4277 64.7738 17.2264 64.7738 18.1004C64.7738 18.8975 64.9563 19.5825 65.3197 20.1523C65.683 20.7221 66.176 21.1639 66.7938 21.4744C67.4133 21.7864 68.1768 21.9417 69.0874 21.9417C69.5836 21.9417 70.1246 21.9017 70.7088 21.8216C71.2931 21.7416 72.0261 21.5848 72.908 21.3543" fill="#00263A"/>
<path d="M77.9483 24.8469C78.0187 24.2802 78.1019 23.3183 78.2013 21.961C78.2989 20.6036 78.3485 19.645 78.3485 19.0847L73.5419 10.52C74.5983 10.5345 75.4674 10.5409 76.1525 10.5409C76.8375 10.5409 77.5962 10.5345 78.5117 10.52C78.7918 11.2195 79.1711 12.0534 79.6497 13.0218C80.1283 13.9901 80.5189 14.856 80.8197 15.6195C81.6247 14.1997 82.2714 13.0921 82.7613 12.2983C83.251 11.5044 83.5999 10.9122 83.8096 10.52C84.6995 10.5345 85.5542 10.5409 86.3737 10.5409C86.8075 10.5409 87.5965 10.5345 88.7377 10.52L84.1297 17.3097C83.2126 18.6669 82.7549 19.3776 82.7549 19.44L82.7437 19.5458V19.6497L82.7325 19.7554L82.6588 21.3511C82.6108 22.4076 82.5724 23.5729 82.5435 24.8469C81.5561 24.8323 80.7941 24.8261 80.2548 24.8261C79.7154 24.8261 78.931 24.8323 77.9451 24.8469" fill="#00263A"/>
<path d="M101.185 21.3527C101.101 21.764 101 22.3387 100.881 23.0734C100.762 23.8096 100.681 24.3793 100.64 24.7843C99.1419 25.0085 97.8067 25.1204 96.6303 25.1204C95.4538 25.1204 94.4424 24.978 93.4659 24.6947C92.4897 24.4115 91.5948 23.9456 90.7786 23.2991C89.9639 22.6524 89.3812 21.8905 89.0307 21.0167C88.6803 20.1427 88.5058 19.1632 88.5058 18.0778C88.5058 16.8118 88.7427 15.6722 89.2148 14.6622C89.687 13.6508 90.3656 12.8088 91.2507 12.1334C92.1359 11.4579 93.1074 10.9762 94.1638 10.6849C95.2202 10.3951 96.3118 10.2495 97.4386 10.2495C98.4741 10.2495 99.7543 10.3823 101.28 10.6481L101.301 11.53C101.315 11.9157 101.336 12.3382 101.363 12.7992L101.436 13.9965C100.617 13.8011 99.9542 13.6667 99.4476 13.5979C98.94 13.5274 98.4693 13.4938 98.0356 13.4938C97.0913 13.4938 96.2414 13.6827 95.4859 14.0605C94.7303 14.4382 94.135 14.9872 93.7013 15.7074C93.2675 16.4277 93.0498 17.2264 93.0498 18.1004C93.0498 18.8975 93.2307 19.5825 93.5955 20.1523C93.9588 20.7221 94.4503 21.1639 95.0696 21.4744C95.6892 21.7864 96.4542 21.9417 97.3634 21.9417C97.8595 21.9417 98.4005 21.9017 98.9845 21.8216C99.5693 21.7416 100.302 21.5848 101.184 21.3543" fill="#00263A"/>
<path d="M103.084 24.8469C103.26 23.195 103.387 21.849 103.463 20.807C103.61 18.9039 103.721 17.012 103.794 15.1346C103.869 13.2555 103.905 11.7189 103.905 10.5217C104.856 10.5361 105.697 10.5425 106.432 10.5425C106.928 10.5425 107.642 10.5361 108.573 10.5217L108.319 14.3215L108.004 20.2628L107.962 21.721C109.166 21.7418 109.95 21.753 110.314 21.753C112.155 21.753 113.549 21.729 114.493 21.6793L114.262 24.8485C112.422 24.8341 110.669 24.8277 109.004 24.8277C106.751 24.8277 104.777 24.8341 103.086 24.8485" fill="#00263A"/>
<path d="M148.037 24.8468L148.248 22.6429L148.658 15.1697L148.772 12.1574V10.52C149.859 10.5344 150.818 10.5408 151.653 10.5408C152.249 10.5408 153.087 10.5344 154.167 10.52L158.647 18.667L159.264 19.8641C159.343 18.6879 159.424 17.0408 159.505 14.9184C159.589 12.7976 159.628 11.3315 159.628 10.5184C160.488 10.5328 161.178 10.5392 161.694 10.5392C161.933 10.5392 162.615 10.5328 163.749 10.5184L163.497 13.6459L163.026 22.3355L162.964 24.8437C162.053 24.8292 161.203 24.8228 160.411 24.8228C159.755 24.8228 158.843 24.8292 157.681 24.8437C157.318 24.1585 157.049 23.6609 156.875 23.3535L155.114 20.3604C154.535 19.3808 154 18.4429 153.509 17.5465C153.188 16.98 152.857 16.3574 152.514 15.6771L152.289 20.6532L152.182 24.8421C151.314 24.8276 150.655 24.8212 150.201 24.8212C149.816 24.8212 149.096 24.8276 148.041 24.8421" fill="#00263A"/>
<path d="M165.659 24.8469C165.835 23.0414 165.963 21.5304 166.043 20.3124C166.123 19.0943 166.204 17.4761 166.284 15.4578C166.364 13.4394 166.406 12.1014 166.406 11.4436L166.395 10.52C168.045 10.5345 170.043 10.5409 172.387 10.5409C174.55 10.5409 176.456 10.5345 178.106 10.52L178.086 10.8657C178.079 10.949 178.062 11.2531 178.032 11.7765L177.971 12.9161C177.956 13.161 177.948 13.4075 177.948 13.6588C176.599 13.6027 175.465 13.5754 174.548 13.5754C173.542 13.5754 172.861 13.5754 172.508 13.5804C172.154 13.5836 171.603 13.5996 170.855 13.6284L170.725 16.042C171.552 16.0628 172.514 16.074 173.613 16.074C174.006 16.074 175.048 16.0502 176.743 16.0004C176.672 16.8968 176.607 17.9627 176.543 19.2016C175.333 19.1872 174.402 19.1808 173.753 19.1808C172.787 19.1808 171.707 19.2048 170.511 19.2544L170.387 21.8056H171.591C171.948 21.8056 172.687 21.7946 173.806 21.7738L175.977 21.721C176.3 21.7144 176.836 21.6856 177.592 21.6361C177.51 22.6717 177.439 23.7424 177.383 24.8469C175.675 24.8323 173.803 24.8261 171.768 24.8261L167.151 24.8357L165.66 24.8469H165.659Z" fill="#00263A"/>
<path d="M4.33918 6.19678L3.02029 1.76318L1.69502 6.19678L0 0.838037H0.296108L1.68061 5.1612L3.02029 0.740402L4.35358 5.1612L5.73808 0.838037H6.04859L4.33918 6.19678Z" fill="#00263A"/>
<path d="M10.3734 6.12321V3.36861H7.46356V6.12321H7.16745V0.838089H7.46356V3.06609H10.3734V0.838089H10.6759V6.12321H10.3734Z" fill="#00263A"/>
<path d="M11.6986 6.12321V0.838089H14.2371V1.1406H12.0011V3.06609H14.2371V3.39102H12.0011V5.8191H14.2371V6.12321H11.6986Z" fill="#00263A"/>
<path d="M17.784 6.12318L16.1035 3.47901H15.5336V6.12318H15.2374V0.836456H16.4588C16.6556 0.836456 16.8429 0.865267 17.0223 0.921288C17.1999 0.977308 17.3519 1.06214 17.4816 1.17258C17.6096 1.28302 17.712 1.42066 17.7888 1.58393C17.8657 1.74718 17.9042 1.93445 17.9042 2.14573C17.9042 2.37782 17.8689 2.5779 17.7968 2.74595C17.7248 2.91401 17.624 3.05166 17.4928 3.1605C17.3615 3.26934 17.2079 3.34937 17.0301 3.40058C16.8525 3.45181 16.6572 3.47901 16.446 3.47901L18.1411 6.12318H17.7858H17.784ZM17.5024 1.69917C17.4432 1.57273 17.3615 1.47029 17.2574 1.38866C17.1535 1.30703 17.0335 1.2462 16.8942 1.20299C16.7565 1.16137 16.6076 1.14057 16.4508 1.14057H15.532V3.1765H16.5308C16.8461 3.1765 17.1021 3.08847 17.2975 2.90921C17.4928 2.73154 17.5904 2.47546 17.5904 2.13933C17.5904 1.97127 17.56 1.82401 17.5008 1.69917" fill="#00263A"/>
<path d="M19.1541 6.12321V0.838089H21.6927V1.1406H19.4567V3.06609H21.6927V3.39102H19.4567V5.8191H21.6927V6.12321H19.1541Z" fill="#00263A"/>
<path d="M29.3483 5.81271C29.0713 6.01439 28.6969 6.13763 28.2231 6.18245C28.1686 6.18724 28.1094 6.19044 28.0454 6.19366C27.9814 6.19526 27.9141 6.19686 27.8453 6.19686C27.045 6.19686 26.3937 5.94556 25.891 5.44137C25.382 4.93239 25.1292 4.27935 25.1292 3.47906C25.1292 2.67877 25.3804 2.02733 25.8846 1.52475C26.3919 1.01577 27.0466 0.762878 27.8469 0.762878C28.3014 0.762878 28.7113 0.830104 29.0761 0.962952C29.2939 1.04618 29.5036 1.16783 29.7052 1.32468V1.70242C29.4972 1.52956 29.2714 1.3919 29.0233 1.28787C28.6488 1.13421 28.2568 1.05899 27.8469 1.05899C27.1458 1.05899 26.5681 1.28627 26.1151 1.74084C25.6605 2.1954 25.4333 2.77482 25.4333 3.48066C25.4333 4.18652 25.6574 4.76432 26.1071 5.21249C26.5617 5.66705 27.141 5.89435 27.8469 5.89435C28.2872 5.89435 28.6697 5.81591 28.9945 5.65745C29.1818 5.56303 29.4186 5.41257 29.7052 5.20609V5.55501L29.3499 5.81431L29.3483 5.81271Z" fill="#00263A"/>
<path d="M34.6639 5.43497C34.1548 5.94396 33.5019 6.19686 32.7017 6.19686C31.9013 6.19686 31.2499 5.94556 30.7473 5.44137C30.2383 4.93239 29.9854 4.27935 29.9854 3.47906C29.9854 2.67877 30.2367 2.02733 30.7408 1.52475C31.2499 1.01577 31.9029 0.762878 32.7031 0.762878C33.5035 0.762878 34.1517 1.01417 34.6655 1.51835C35.1745 2.02733 35.4274 2.68038 35.4274 3.48066C35.4274 4.28095 35.1728 4.93239 34.6655 5.43497M34.451 1.74084C33.9964 1.28627 33.4138 1.05899 32.7031 1.05899C31.9926 1.05899 31.4243 1.28627 30.9713 1.74084C30.5168 2.1954 30.2895 2.77482 30.2895 3.48066C30.2895 4.18652 30.5136 4.76432 30.9634 5.21249C31.4179 5.66705 31.9972 5.89435 32.7031 5.89435C33.409 5.89435 33.9964 5.67185 34.451 5.2285C34.9007 4.77874 35.1249 4.19772 35.1249 3.48066C35.1249 2.76361 34.9007 2.1906 34.451 1.74084Z" fill="#00263A"/>
<path d="M40.9205 5.43497C40.4115 5.94396 39.7585 6.19686 38.9582 6.19686C38.1579 6.19686 37.5081 5.94556 37.0039 5.44137C36.4948 4.93239 36.2404 4.27935 36.2404 3.47906C36.2404 2.67877 36.4918 2.02733 36.9959 1.52475C37.5048 1.01577 38.1579 0.762878 38.9582 0.762878C39.7585 0.762878 40.4067 1.01417 40.9205 1.51835C41.4294 2.02733 41.6824 2.68038 41.6824 3.48066C41.6824 4.28095 41.428 4.93239 40.9205 5.43497ZM40.7059 1.74084C40.2514 1.28627 39.6688 1.05899 38.9582 1.05899C38.2475 1.05899 37.6794 1.28627 37.2265 1.74084C36.7718 2.1954 36.5446 2.77482 36.5446 3.48066C36.5446 4.18652 36.7686 4.76432 37.2183 5.21249C37.673 5.66705 38.2524 5.89435 38.9582 5.89435C39.6641 5.89435 40.2514 5.67185 40.7059 5.2285C41.1558 4.77874 41.3798 4.19772 41.3798 3.48066C41.3798 2.76361 41.1558 2.1906 40.7059 1.74084Z" fill="#00263A"/>
<path d="M42.8891 6.12321V0.838089H43.1853V5.8191H44.6738V6.12321H42.8891Z" fill="#00263A"/>
<path d="M48.4576 0.836456H48.1616V6.12318H48.4576V0.836456Z" fill="#00263A"/>
<path d="M52.9808 5.32449C52.5359 5.85748 51.9564 6.12478 51.2411 6.12478H49.4788V0.836456H51.2411C51.9516 0.836456 52.5295 1.10215 52.9728 1.63674C53.3922 2.13452 53.6019 2.74755 53.6019 3.47261C53.6019 4.19767 53.3953 4.8203 52.9792 5.32289M52.7568 1.84323C52.3711 1.36945 51.8652 1.13256 51.2393 1.13256H49.7733V5.81905H51.2393C51.782 5.81905 52.2542 5.61739 52.6527 5.21245C53.0816 4.77869 53.2962 4.19767 53.2962 3.47261C53.2962 2.82598 53.1154 2.28339 52.7552 1.84323" fill="#00263A"/>
<path d="M54.5429 6.12321V0.838089H57.0831V1.1406H54.8471V3.06609H57.0831V3.39102H54.8471V5.8191H57.0831V6.12321H54.5429Z" fill="#00263A"/>
<path d="M61.8065 6.12321L61.1999 4.53863H58.7942L58.1796 6.12321H57.8834L59.993 0.666824L62.1106 6.12321H61.8065ZM59.993 1.4367L58.9126 4.23451H61.075L59.9946 1.4367H59.993Z" fill="#00263A"/>
<path d="M65.0044 6.07853C64.8124 6.14736 64.5851 6.18256 64.3225 6.18256C63.5128 6.18256 62.9925 5.80004 62.7604 5.03495L63.0645 4.93091C63.2375 5.56314 63.6568 5.87845 64.3225 5.87845C64.702 5.87845 65.0012 5.78562 65.219 5.59675C65.4413 5.40469 65.5518 5.12298 65.5518 4.75326C65.5518 4.40272 65.4207 4.11141 65.1597 3.87933C65.0909 3.8153 64.9836 3.74329 64.8412 3.66485C64.6986 3.58642 64.5146 3.49679 64.2937 3.39915C63.8744 3.21189 63.5878 3.04863 63.4342 2.91098C63.1781 2.68849 63.0485 2.39558 63.0485 2.03066C63.0485 1.66573 63.1797 1.37122 63.4406 1.14874C63.6968 0.921457 64.0137 0.807816 64.3882 0.807816C65.0092 0.807816 65.4493 1.0399 65.7055 1.50407L65.4175 1.63051C65.3182 1.46726 65.1998 1.34722 65.062 1.26718C64.8892 1.15834 64.6652 1.10392 64.3882 1.10392C64.0969 1.10392 63.8552 1.18555 63.6632 1.34882C63.4567 1.52167 63.3526 1.74895 63.3526 2.03066C63.3526 2.28194 63.4614 2.50284 63.6792 2.69009C63.8024 2.78933 64.0489 2.92217 64.4187 3.09024C64.6508 3.19428 64.8508 3.29672 65.0188 3.39755C65.1869 3.49839 65.3229 3.60083 65.4253 3.70486C65.7119 3.98657 65.8544 4.33709 65.8544 4.75644C65.8544 5.42709 65.571 5.86885 65.0028 6.08173" fill="#00263A"/>
<path d="M72.8456 5.32449C72.4022 5.85748 71.8212 6.12478 71.1057 6.12478H69.3435V0.836456H71.1057C71.8164 0.836456 72.3943 1.10215 72.8375 1.63674C73.2569 2.13452 73.4666 2.74755 73.4666 3.47261C73.4666 4.19767 73.2601 4.8203 72.844 5.32289M72.6216 1.84323C72.2373 1.36945 71.73 1.13256 71.1041 1.13256H69.6379V5.81905H71.1041C71.6467 5.81905 72.1189 5.61739 72.5174 5.21245C72.9464 4.77869 73.1609 4.19767 73.1609 3.47261C73.1609 2.82598 72.9816 2.28339 72.6198 1.84323" fill="#00263A"/>
<path d="M77.8571 6.12321L77.2504 4.53863H74.8447L74.2301 6.12321H73.934L76.0436 0.666824L78.1611 6.12321H77.8571ZM76.0436 1.4367L74.9632 4.23451H77.1255L76.0452 1.4367H76.0436Z" fill="#00263A"/>
<path d="M79.2783 1.63677V6.1232H78.9822V0.799667L82.9293 5.42695V0.836481H83.2334V6.21283L79.2783 1.63677Z" fill="#00263A"/>
<path d="M88.6675 5.81271C88.3905 6.01439 88.016 6.13763 87.5423 6.18245C87.4878 6.18724 87.4286 6.19044 87.3646 6.19366C87.3006 6.19526 87.2333 6.19686 87.1646 6.19686C86.3642 6.19686 85.7128 5.94556 85.2102 5.44137C84.7012 4.93239 84.4483 4.27935 84.4483 3.47906C84.4483 2.67877 84.6996 2.02733 85.2038 1.52475C85.7112 1.01577 86.3658 0.762878 87.1662 0.762878C87.6207 0.762878 88.0304 0.830104 88.3954 0.962952C88.613 1.04618 88.8227 1.16783 89.0243 1.32468V1.70242C88.8179 1.52956 88.5905 1.3919 88.3424 1.28787C87.968 1.13421 87.5743 1.05899 87.1662 1.05899C86.4651 1.05899 85.8872 1.28627 85.4342 1.74084C84.9797 2.1954 84.7524 2.77482 84.7524 3.48066C84.7524 4.18652 84.9765 4.76432 85.4262 5.21249C85.8808 5.66705 86.4603 5.89435 87.1662 5.89435C87.6047 5.89435 87.9872 5.81591 88.3138 5.65745C88.501 5.56303 88.7379 5.41257 89.0243 5.20609V5.55501L88.6691 5.81431L88.6675 5.81271Z" fill="#00263A"/>
<path d="M89.8295 6.12321V0.838089H92.3697V1.1406H90.1335V3.06609H92.3697V3.39102H90.1335V5.8191H92.3697V6.12321H89.8295Z" fill="#00263A"/>
<path d="M136.651 0.75473H123.515C118.898 0.75473 115.156 4.49689 115.156 9.11296V18.4395L119.567 21.9433L132.502 19.7552V10.5007L131.551 10.7024L122.254 12.6887L122.752 18.1627L129.42 16.799L130.082 15.0303L124.045 16.799L124.642 15.0767L131.11 13.385L130.614 18.4603L119.666 18.958L119.965 9.70358L134.793 7.31551L136.385 24.0336H119.069L115.156 20.2674V22.2489C115.156 26.8666 118.898 30.6088 123.515 30.6088H136.651C141.269 30.6088 145.009 26.8666 145.009 22.2489V9.11296C145.009 4.49689 141.269 0.75473 136.651 0.75473Z" fill="url(#paint0_linear_0_3)"/>
</g>
</g>
</g>
</g>
<defs>
<linearGradient id="paint0_linear_0_3" x1="115.156" y1="15.6817" x2="145.009" y2="15.6817" gradientUnits="userSpaceOnUse">
<stop stop-color="#015A7C"/>
<stop offset="0.84" stop-color="#00B0AD"/>
<stop offset="1" stop-color="#00B0AD"/>
</linearGradient>
<clipPath id="clip0_0_3">
<rect width="179" height="32" fill="white"/>
</clipPath>
</defs>
</svg>
