<svg width="582" height="582" viewBox="0 0 582 582" fill="none" xmlns="http://www.w3.org/2000/svg">
<path d="M388.504 40.5038L541.586 193.586C595.39 247.39 595.392 334.608 541.599 388.4L432.915 497.085L340.679 486.509L215.433 310.266L323.278 202.421L332.009 215.853L417.207 347.345L347.617 405.334L285.8 311.736L298.698 283.412L348.437 374.372L361.554 347.349L305.89 252.257L252.523 317.178L374.313 450.568L478.664 339.23L333.699 138.608L120.322 314.871L322.119 516.669L411.614 518.386L388.523 541.477C334.712 595.288 247.493 595.286 193.689 541.482L40.6073 388.4C-13.2138 334.579 -13.1842 247.391 40.6261 193.581L193.703 40.5039C247.495 -13.2883 334.683 -13.3173 388.504 40.5038Z" fill="url(#paint0_linear_7_2)"/>
<defs>
<linearGradient id="paint0_linear_7_2" x1="465.053" y1="464.947" x2="117.156" y2="117.051" gradientUnits="userSpaceOnUse">
<stop stop-color="#015A7C"/>
<stop offset="0.84" stop-color="#00B0AD"/>
<stop offset="1" stop-color="#00B0AD"/>
</linearGradient>
</defs>
</svg>
