<svg width="887" height="887" viewBox="0 0 887 887" fill="none" xmlns="http://www.w3.org/2000/svg">
<path d="M817.274 275.182L572.024 54.3587C485.826 -23.2548 353.053 -16.2995 275.456 69.88L118.676 244.002L142.135 383.569L420.422 560.17L575.99 387.394L554.846 375.175L347.88 255.968L265.154 366.531L412.57 453.167L454.659 431.273L312.222 362.813L352.313 340.689L501.512 417.839L406.941 504.259L194.164 329.5L355.33 161.764L672.302 366.438L420.999 705.325L97.7033 414.228L87.9493 278.128L54.6397 315.122C-22.9827 401.33 -16.0221 534.104 70.1764 611.717L315.426 832.541C401.652 910.179 534.376 903.178 611.998 816.97L832.815 571.728C910.411 485.548 903.5 352.82 817.274 275.182Z" fill="url(#paint0_linear_8_3)"/>
<defs>
<linearGradient id="paint0_linear_8_3" x1="165.036" y1="192.514" x2="722.395" y2="694.362" gradientUnits="userSpaceOnUse">
<stop stop-color="#015A7C"/>
<stop offset="0.84" stop-color="#00B0AD"/>
<stop offset="1" stop-color="#00B0AD"/>
</linearGradient>
</defs>
</svg>
